<svg width="274" height="273" viewBox="0 0 274 273" fill="none" xmlns="http://www.w3.org/2000/svg">
<g filter="url(#filter0_b_0_1)">
<path d="M267 136.5C267 208.021 208.797 266 137 266C65.203 266 7 208.021 7 136.5C7 64.9791 65.203 7 137 7C208.797 7 267 64.9791 267 136.5Z" fill="#3BB488"/>
<path d="M137 269.5C210.717 269.5 270.5 209.967 270.5 136.5C270.5 63.0334 210.717 3.5 137 3.5C63.2827 3.5 3.5 63.0334 3.5 136.5C3.5 209.967 63.2827 269.5 137 269.5Z" stroke="#1F6EB7" stroke-width="7"/>
</g>
<path d="M49 89C52.2675 89 55.1866 88.3517 58 88C58.8421 87.8947 60.8991 86.8068 61 86C61.2069 84.3446 64.2285 85 65.5 85C69.1855 85 72.1828 81 76.5 81C79.4635 81 82.11 79 85 79" stroke="white" stroke-width="3" stroke-linecap="round"/>
<path d="M47 89C54.7115 89 60.8664 88.4931 66.2222 92.7778C68.8568 94.8854 72.3656 93.207 75 96.5C77.3217 99.4021 81.2499 95.7497 83 101" stroke="white" stroke-width="3" stroke-linecap="round"/>
<path d="M85 81C85 89.774 85.0414 94.0414 91 100" stroke="white" stroke-width="3" stroke-linecap="round"/>
<path d="M84 78C84 72.1038 87.3973 72.0034 90.7778 67.7778C91.5391 66.8262 90.4609 65.1739 91.2222 64.2222C91.8674 63.4157 92.6627 62.8952 93.2222 62C94.0579 60.6629 95.1663 60.4764 95.7778 58.7778C96.5172 56.7238 97.922 57.6164 98.7778 56C101.598 50.6725 113.007 49 118.778 49C125.147 49 134.311 44.2495 141 47.2222C146.337 49.5944 151.691 50.1483 157 53.2222C158.851 54.2937 160.129 56.1219 162 57.2222C163.58 58.1515 162.253 59.8084 163.222 60.7778C165.094 62.6491 167.148 64.205 169 66.7778C175.93 76.4034 176 85.9692 176 98C176 103.783 175.45 108.709 173.222 114C171.55 117.973 167.278 123.271 167 128C166.858 130.413 165 132.701 165 135.778C165 138.597 165.368 141.422 164.222 144C163.209 146.28 164.085 151.143 162.778 152.778C161.823 153.972 161.092 158.345 161 160C160.272 173.109 161 186.152 161 199C161 205.077 167 210.394 167 216C167 218.998 171.446 229 175 229" stroke="white" stroke-width="3" stroke-linecap="round"/>
<path d="M93 110C94.9994 112.249 95.9347 114.448 99 116.222C101.051 117.41 102.739 120.621 105 120.944C106.68 121.185 107.688 121.834 109 123C113.129 126.67 119.722 126.178 124.222 129.778C125.595 130.876 127 129.979 127 132.5C127 134.628 127.291 134.884 128.778 136.222C130.99 138.214 130.22 140.275 131.778 142.222C134.352 145.44 131.344 156.981 130.944 160.778C130.51 164.902 129.09 170.436 127.944 174.444C127.057 177.55 126.089 180.639 124.5 183.5C121.058 189.696 120.376 197.118 117.5 203.444C116.278 206.134 114.705 208.781 113.944 211.444C113.475 213.087 110.667 218.896 109.444 219.944C106.394 222.559 107.034 225.995 105 229.556C103.308 232.517 104 236.678 104 240" stroke="white" stroke-width="3" stroke-linecap="round"/>
<path d="M83 81C83 84.8333 83 88.6667 83 92.5C83 95.4962 84.6439 102.199 81.2222 98.7778C78.738 96.2936 75.3347 97.2678 72.5 95C70.32 93.256 65.393 93 62.5 93C60.2917 93 59.319 91 57 91C55.0118 91 52.9843 91.1167 51 91C43.901 90.5824 50.5168 88.2073 53 86C55.4137 83.8545 61.3824 85 64.5 85C69.3077 85 72.9664 81 77.5 81C78.3411 81 82.4638 80.7171 80.7778 82.7778C79.5093 84.3281 79.4918 87.8454 78 88.7778C74.6136 90.8943 78.7074 98.5372 79 91.2222C79.0745 89.3588 79 87.4763 79 85.6111C79 83.6667 79 89.5 79 91.4444C79 99.9845 81 91.8835 81 87.5C81 84.5748 79.2697 88.1579 79 86C78.6033 82.8265 75.2044 84.8625 74 86C71.6318 88.2366 74.5123 87 77 87C77.7084 87 73.111 87.9415 72 88C65.8155 88.3255 76.0483 88.581 74.9444 92.4444C74.4999 94.0004 69.8774 90.0364 66.4444 89.0556C63.1793 88.1227 58.4066 89 55 89C53.2536 89 52.2558 88.1894 51.5556 86.5556C51.192 85.7072 55.7371 86 56.5 86C60.3826 86 63.3212 85 67 85C68.7199 85 76.7245 88.1325 77 84C77.0032 83.9523 68.94 86.7 67.5 87.5C65.6746 88.5141 62.4114 88.51 63.0556 85.6111C63.4437 83.8643 70.1783 85 68.3889 85C66.7519 85 57.2393 90 62 90C65.7825 90 69.7237 90.8073 73 91C76.8654 91.2274 78.0882 90.4623 79.5 85.9444C79.9246 84.5858 80.8889 80.6742 80.8889 79.5C80.8889 78.3751 78.7328 80.7854 78.5 80.8889C77.512 81.328 76.4356 80.6755 75.5556 81.5556C71.4681 85.643 76.7122 83.4302 78.7778 81.7778C79.0435 81.5652 81.8755 78.4444 80.7778 78.4444C80.7721 78.4444 76.5896 80.9643 76 81.2222C74.4995 81.8787 77.8889 80.3886 77.8889 79.6111C77.8889 78.2548 73.4271 82.6968 74.5556 81.9444C76.1428 80.8863 66.033 82 65.5 82C63.5075 82 58.2151 83.6279 56.7778 84.7778C53.5284 87.3773 49.5246 82.9509 47 88" stroke="#FF7F09" stroke-width="3" stroke-linecap="round"/>
<path d="M142 157C142 166.027 142.875 147.623 142.944 145.778C143.006 144.138 143.168 135.871 143.222 136C145.695 141.874 142.618 148.921 144.5 154.944C144.651 155.428 145 157.85 145 157.222C145 151.745 145.028 146.326 145.778 140.889C146.104 138.521 146 131.332 146 133.722C146 148.059 149.712 161.726 151 175.889C151.75 184.14 151.784 159.336 152.056 151.056C152.403 140.452 154.52 130.015 155 119.444C155.09 117.458 154.536 122.698 154.389 123.222C149.884 139.238 151 155.982 151 172.5C151 172.961 151.253 175.412 150.833 173.944C147.295 161.56 143.711 148.939 142.222 136.111C141.707 131.673 141 126.994 141 122.556C141 112.63 141 142.407 141 152.333C141 153.77 141.034 162.786 143 163.278C143.137 163.312 153.465 131.233 143 126" stroke="white" stroke-width="5" stroke-linecap="round"/>
<path d="M127 116C126.713 113.416 123.02 110.858 121.5 108.944C118.397 105.037 115.629 100.881 112.222 97.2222C111.626 96.5823 109.815 93.7676 112.111 94.2778C119.985 96.0275 126.949 100.542 134.333 103.556C142.138 106.741 131.575 96.704 130 95.3333C126.982 92.7062 124.265 89.9074 121.056 87.5C113.575 81.8899 137.295 96.814 145 102.111C150.45 105.858 155.709 109.773 160.833 113.944C161.658 114.615 164.021 116.201 163.778 115.167C163.143 112.467 160.761 109.533 159.222 107.444C153.301 99.4056 146.729 91.844 140.556 84C139.835 83.0848 132.111 73.3871 132.111 73.6667C132.111 76.6232 134.821 79.8207 136.778 81.7778C141.49 86.4902 139.832 77.3034 141.222 76.2222C142.045 75.5826 148.346 86.9288 148.889 87.7778C149.072 88.064 155.144 96.3231 155.5 95.6111C157.554 91.5027 152.661 78.2211 149.056 86.3333C146.619 91.8153 147.106 98.1539 147 104C146.835 113.091 127.649 83.3464 126.944 82.2778C125.968 80.7983 107.655 50.1329 104.222 53.2222C103.571 53.8079 104.121 55.7072 103.944 56.5C103.466 58.6511 100.046 61 98 61C93.4109 61 91 66.8361 91 71C91 74.7198 87 78.1909 87 82.5C87 92.2619 84.1134 100.142 90.2222 107.778C91.8854 109.857 98.6199 111.959 99 115C99.4513 118.611 109.774 121.324 112.5 123.444C114.765 125.206 117.369 124.711 119.556 126.5C121.161 127.814 123.193 128.071 125 129C126.843 129.948 128.538 132.508 130.5 132.944C133.523 133.616 131.983 133.862 130.444 131.444C128.324 128.112 123.449 125.037 120 123.222C114.971 120.575 111.287 115.108 105.778 112.778C101.263 110.868 97.8689 104.408 94.5556 101C90.9965 97.3392 91 95.3248 91 90.5C91 85.2738 91.6738 81.8919 92.9444 77.4444C93.4011 75.846 96 72.3086 96 76.0556C96 80.6012 95 85.0552 95 89.5C95 92.6727 94.4238 95.9021 96.4444 98.5C99.265 102.126 99 90.1799 99 88.1111C99 84.8236 101 82.5376 101 79.5C101 78.5089 99.7433 76.9875 99.2222 78.6667C97.9519 82.7599 98.9749 88.0052 98.2222 92.3333C98.0127 93.5381 97.0201 100.884 99 101C101.571 101.151 104.203 101 106.778 101C110.548 101 111.208 102.306 112.778 105.444C113.336 106.561 114.958 113.517 116.389 112.944C117.379 112.548 108.469 105.382 106.5 104.944C104.008 104.391 103.177 101.428 100.944 101.056C95.9911 100.23 101.919 99.2959 103.5 98.9444C107.993 97.9461 106.058 90.7645 107.222 88C109.816 81.8388 121.382 76.8003 108 77C103.997 77.0597 102.814 78.2073 100.611 81.3889C99.6386 82.7936 99.9055 84 101.778 84C106.428 84 115.712 77.7903 105.056 80.6111C103.992 80.8927 91.0221 87.9282 92.1111 84.3889C93.0811 81.2365 100.889 78.0301 100.889 75.5556C100.889 73.8685 92.5351 79.6892 91.5556 80.3889C90.6551 81.032 90.9781 77.8662 91.2222 77.4444C92.052 76.0112 96.1518 73.7851 97.7778 73.2222C99.3717 72.6705 101.743 73.1359 102.833 71.5C103.49 70.5143 103.424 69.3454 102.333 70C101.491 70.5051 94.8567 72.2927 95 70C95.1056 68.3098 100.685 69 102 69C109.104 69 114.941 68.1992 121.111 72.0556C123.005 73.2389 134.696 80.8292 133.889 80.9444C131.386 81.3019 123.918 79.462 123.056 76.4444C122.076 73.0155 122.696 72.0692 119.556 69.5C116.793 67.2398 113.193 66.1541 110.778 64.2222C109.073 62.8584 105.871 62.2614 104.222 60.7778C101.013 57.8896 104.705 64.0211 105.778 65.2222C108.928 68.7506 109.904 74.6178 112.778 78.5556C115.988 82.9554 118.902 86.6332 122.778 90.2222C125.532 92.7721 128.606 93.4606 131.444 96C136.999 100.97 125.519 94.4015 123.222 93.4444C116.631 90.6982 110.858 87.2266 105.222 83C101.008 79.8393 121.182 83.395 122.833 84.0555C128.009 86.1258 132.869 88.6676 138 90.5C140.102 91.2506 141.74 92.0838 143.667 93.2222C144.669 93.8145 151.097 98.0635 148.222 94.7778C143.596 89.4905 137.24 85.3045 132.056 80.4444C131.11 79.558 124.096 71.1587 128.222 71C133.185 70.8091 139.476 69.9602 144 72.2222C145.273 72.8589 145.818 73.2728 146.5 74.5C147.724 76.7024 144.495 74.373 143.222 74C141.36 73.4543 134.582 73 135.222 73C140.672 73 142.882 74.9661 146.5 79.0556C148.541 81.3629 151.653 83.3838 153.222 86C154.498 88.1264 155.162 89.2655 154.944 85.7778C154.467 78.145 150.656 74.9147 146.444 69.5C143.065 65.1546 143.436 65.0772 146.444 70C148.837 73.915 153.154 78.0014 154.778 82.2222C159.431 94.321 161.118 73.914 158.778 69C157.088 65.4523 152.155 61 148.222 61C145.637 61 142.058 61.6595 139.556 60.9444C138.375 60.6071 141.019 60.2617 142 60.7778C143.619 61.6299 145.16 63.402 146.556 64.6111C149.57 67.2238 154.026 72.0466 155 75.9444C156.891 83.5101 164 82.6518 164 75C164 69.765 155.509 57 149.5 57C147.824 57 144.893 54.6393 143.5 53.5556C142.437 52.7284 138.636 52.3326 137.389 52.0556C132.949 51.069 127.035 51 122.5 51C118.2 51 106.571 48.4598 109.611 51.5C111.881 53.7699 117.729 52.215 120.556 53.5C124.469 55.2788 129.467 55.835 133 58.2222C135.134 59.664 143 64.8011 143 68C143 71.9653 131.45 66.0311 129.444 64.7778C128.22 64.0123 129.942 63.0533 129.389 62.5C128.576 61.6872 126.843 61.1464 125.778 60.7778C123.509 59.9923 119.982 56.3622 117.556 57.0556C113.908 58.0976 117.387 61.5435 118.556 62.5C121.896 65.2333 123.515 64.4425 127.5 65.0556C134.189 66.0846 139.306 71.1708 145.556 72.7778C149.403 73.7672 156.473 73.5077 159 70.2222C159.886 69.071 161.884 64.6054 160.778 63.2222C158.186 59.9826 146.734 61.0215 151 53.5556C151.978 51.8434 154.728 55.5267 154.944 56.5C155.756 60.1512 154.454 61.8823 157.944 64.5C160.167 66.1669 161.647 69.0768 163 71.4444C164.106 73.3793 166.669 73.3513 167 76C167.237 77.8943 168.47 79.9146 169.778 81.2222C171.773 83.2176 170.243 85.7977 171.222 88C172.859 91.6819 174 98.4825 174 102.5C174 104.833 174 107.167 174 109.5C174 112.814 172.726 114.482 172.056 117.5C170.936 122.539 167.206 127.657 167 133.222C166.757 139.777 162.392 145.08 162 151.556C161.885 153.46 160.391 154.599 160.056 156.444C159.788 157.917 160.371 159.59 159.778 161C158.532 163.958 159.543 166.852 157.444 169.444C155.307 172.085 155.227 177.511 154.222 180.778C152.924 184.997 154 173.24 154 171.444C154 163.133 153 155.277 153 147C153 138.151 153.102 129.037 155.111 120.5C157.912 108.596 158 97.4454 158 85.2222C158 75.9892 163 88.3123 163 92C163 93.097 162.724 98.3355 163.222 96.7778C164.474 92.8666 164 88.5747 164 84.5C164 80.0021 164 82.4358 164 85.5555C164 88.7109 163.031 93.669 164.556 96.5C167.994 102.885 169 110.592 169 117.778C169 122.301 166.745 125.48 163.778 128.778C159.652 133.362 160.444 142.501 156.556 147.5C155.983 148.236 156 150.621 156 148.556C156 143.209 156.332 138.023 157.444 132.778C158.395 128.298 158 123.568 158 119C158 113.774 159 108.729 159 103.5C159 99.2387 158.42 93.6589 157.222 101.778C155.353 114.446 153.709 131.038 145.222 141.222C143.454 143.344 143.178 141.753 143.056 139.111C142.714 131.761 143.685 124.237 142 117C141.802 116.149 139.956 111.095 140.056 111.944C140.661 117.088 142.141 122.277 144 127.111C146.188 132.799 148.647 121.908 149 120.722C149.777 118.114 151.819 110.22 150.889 112.778C149.216 117.377 146.933 122.476 144.444 126.667C141.172 132.178 134.557 111.732 133.667 109.667C128.672 98.0787 137.895 114.541 138.278 117.222C138.282 117.25 128.163 106.292 133.056 112C135.952 115.379 134.546 113.907 131.778 111.222C129.981 109.48 118.111 102.118 118.111 99.6111C118.111 97.994 121.004 101.08 122.333 102C125.057 103.886 127.843 104.949 130.944 106.5C135.517 108.787 139.457 113 144.556 113C157.247 113 148.469 96.4739 139.222 104C135.535 107.001 132.626 110.947 129 114C127.313 115.421 121 114.012 121 115C121 116.819 126.441 118.913 128 119C130.526 119.14 132.229 120.303 133 123C133.88 126.079 135 127.17 135 131C135 135.612 132 131.707 132 134.5C132 137.086 134 138.907 134 141.5C134 144.333 134 147.167 134 150C134 158.825 135.006 169.883 128.444 176.444C125.318 179.571 122.233 186.686 121 191C119.131 197.541 115.111 203.951 112 210C111.012 211.922 111.374 214.03 110.444 215.889C109.563 217.653 108.32 218.336 107.778 220.444C106.596 225.039 104.01 228.275 103.222 233C102.896 234.959 100.282 244.163 103.222 241.222C104.88 239.564 107.209 238 109.5 238C119.9 238 129.331 244 140.222 244C143.787 244 147.114 245 150.778 245C155.397 245 157.183 242.404 161.556 241.222C165.49 240.159 168.326 237.855 172 236.222C173.263 235.661 177.454 234.809 174 232.778C165.273 227.644 159 215.852 159 205.5C159 199.651 158.966 193.869 156.5 188.444C153.768 182.434 156.599 176.17 152.556 170.778C149.141 166.225 144.839 185.921 143.778 189.222C142.666 192.681 142.866 190.325 142.5 187.833C141.544 181.333 143.4 174.931 142.778 168.444C142.018 160.519 133.531 157.827 135.056 149.444C135.713 145.828 135 144.025 135 140.5C135 134.148 135 153.204 135 159.556C135 164.77 134.977 169.463 133.444 174.5C131.533 180.782 131.544 187.593 128 193.222C123.406 200.518 118.181 209.088 114.444 217C112.675 220.747 111.883 224.894 110 228.556C109.028 230.446 107.42 231.362 106.944 233.5C106.472 235.625 106.876 233.361 108.556 233.056C115.826 231.734 126.483 230.427 133 234.5C137.582 237.364 143.724 238 149 238C151.81 238 167.531 238.853 162.556 233C159.15 228.994 156.161 225.992 154.333 221C150.554 210.68 147 197.444 147 186.389C147 183.071 147.606 179.113 146.222 176C146.183 175.911 146 183.151 146 184.222C146 191.622 146.072 198.332 149 205.222C150.436 208.601 152.948 211.958 153.944 215.444C156.206 223.36 155.959 232.824 145.444 229C143.044 228.127 141.786 225.354 139.222 225C135.737 224.519 132.577 224 129 224C127.37 224 114.552 223.563 118 224.056C121.577 224.566 124.74 225 128.5 225C131.217 225 140.652 228.096 142.778 230.222C147.294 234.738 137.019 236.426 134 235C127.311 231.841 137.938 230 140.778 230C145.38 230 149.429 231.826 153.778 232C155.82 232.082 161.224 234.662 158.444 229.5C155.038 223.175 151 215.531 151 208.389C151 203.585 151.579 198.312 150.944 193.556C150.099 187.217 151 188.395 151 194.222C151 200.665 149.893 205.849 148 212C146.487 216.916 147.145 221.924 147 227C146.859 231.94 144.647 223.31 144.556 222.556C143.659 215.128 144.151 207.652 143.222 200.222C142.487 194.342 142.932 190.906 140.5 185.556C138.87 181.969 138.024 178.674 135.556 175.5C134.032 173.541 135 176.868 135 178.556C135 184.704 135 190.852 135 197C135 204.571 134 211.999 134 219.556C134 221.815 134 228.593 134 226.333C134 218.526 132.831 210.773 132.222 203C131.827 197.944 136.254 187.312 138 197.889C139.051 204.259 139.467 210.945 139.944 217.389C140.045 218.742 140.171 221.802 138.778 222.778C137.154 223.915 135.982 210.69 135.889 209.944C135.462 206.529 134.416 196.104 129.778 194.889C122.918 193.092 127.558 214.827 127.944 218.5C128.53 224.062 129 214.249 129 213.333C129 211.422 129.79 197.735 124.556 202.222C120.457 205.735 122 213.719 122 218.556C122 221.658 122.218 226.638 118.111 221.944C114.876 218.248 118 209.394 118 205" stroke="white" stroke-width="8" stroke-linecap="round"/>
<path d="M122 232C124.494 232 126.515 232.854 129 233C131.723 233.16 129.159 236 127 236C124.98 236 121.657 236.912 122 234C122.299 231.458 130.379 233.773 131.556 234.056C139.81 236.037 146.929 237 155.5 237C157.702 237 160.757 236.269 162 238.444C162.949 240.104 167.73 239.088 168.778 237.778C171.133 234.833 165.935 227.494 164 225.444C160.308 221.535 158 216.21 158 210.5C158 208.218 158 216.02 158 217.5C158 218.553 160 223.768 160 221.5C160 217.49 161.13 210 156 210" stroke="white" stroke-width="8" stroke-linecap="round"/>
<path d="M162 213C162 216.255 166 217.208 166 221" stroke="white" stroke-width="8" stroke-linecap="round"/>
<path d="M138 172C138 163.54 140 154.78 140 146.222C140 142.594 139.41 139.956 138.778 136.444C138.433 134.531 138.44 131.44 137 130C135.536 128.536 134 128.739 134 131C134 135.47 135.799 143.05 138.667 146.556C143.499 152.461 153.715 135.458 156 131.778C157.274 129.725 158.039 127.506 158.778 125.222C162.05 115.108 165.881 104.944 168.556 94.6667C169.555 90.8256 163.269 89.4616 162 92" stroke="white" stroke-width="8" stroke-linecap="round"/>
<path d="M116 74C116.35 77.1498 123.653 84.3053 123 83" stroke="white" stroke-width="8" stroke-linecap="round"/>
<path d="M170 80C167.07 79.6338 166.006 71.7637 165 69.5C163.744 66.6741 159.226 64.7364 157.778 62C156.508 59.602 151.929 58 149.5 58C145.705 58 140.744 55.7437 138 53" stroke="white" stroke-width="8" stroke-linecap="round"/>
<path d="M82 80C82 82.5 82 85 82 87.5C82 89.5496 80 90.8306 80 93C80 95.5958 79.9676 98.4265 76.5 96.5C74.1115 95.173 69.6001 96 67 96C61.4024 96 58.6867 92 53 92C47.2987 92 42.5551 88.71 50.5 86.9444C51.6715 86.6841 57.0443 85.3646 57.7778 84.7778C59.6737 83.261 62.186 84.4587 64.5 83.9444C67.3913 83.3019 69.7699 80.9819 72.5556 80.2222C75.2023 79.5004 77.9974 79.7865 80.5556 79.0556C85.4896 77.6458 77.0301 91.16 73.5 91.9444C71.2087 92.4536 68.9113 92.1411 67.7778 90C66.1026 86.8358 71.1587 89 66 89" stroke="#FF8D07" stroke-width="8" stroke-linecap="round"/>
<path d="M110 82C112.432 79.8112 115.448 80.1078 117.778 77.7778C119.696 75.8601 120.812 76 123.556 76C125.869 76 129.198 75.4138 131.444 76.0556C132.456 76.3445 131.819 78.2382 132.222 79C132.941 80.3573 134.341 79.6817 135 81" stroke="#14120F" stroke-width="8" stroke-linecap="round"/>
<path d="M47 89C50.0504 89 51.7285 92.2318 55 90.7778C57.7657 89.5486 60.9747 90 64 90C66.6749 90 69.2129 92 72 92C75 92 78 92 81 92" stroke="#753F00" stroke-width="4" stroke-linecap="round"/>
<path d="M170 75C167.773 72.7731 168.964 68.9073 169.778 70.4444C171.043 72.8348 170 81.2603 170 78.5556C170 71.1982 165.37 64.0039 158.611 61C156.602 60.1072 154.528 58.5989 153.944 56.5556C153.67 55.5951 157.242 57.1172 158 58.4444C158.245 58.8738 164.117 61.1808 161.444 61.9444C158.429 62.806 157.609 57.8262 157 56" stroke="#FEFEFE" stroke-width="4" stroke-linecap="round"/>
<path d="M108 48C111.442 48 112.813 44 116 44C119.942 44 123.421 43 127 43C130.035 43 135.904 41.9231 138.222 43.7778C139.758 45.0066 140.784 44.3392 142.222 45.7778C143.34 46.8954 146.788 46.1128 148.5 47.4444C151.267 49.5968 155.964 47.6224 157.056 51.4444C157.806 54.0703 162.281 55.4375 164.444 56.0555C166.323 56.5922 166 59.0412 166 60.5C166 63.402 167.493 62.9763 167.944 64.5555C168.313 65.8461 169.281 67.2717 170.556 68C172.653 69.1984 172 71.8774 172 74" stroke="#FEFEFE" stroke-width="4" stroke-linecap="round"/>
<path d="M172 72C172 68.3524 165.908 61.9265 163.5 60C159.869 57.0949 156.37 50.3159 151 50C149.126 49.8897 146.91 45.8375 145.444 45C143.476 43.8751 138.558 43 136.5 43C133.35 43 130.144 42.8253 127 43C123.68 43.1845 122.313 46 119 46" stroke="#FEFEFE" stroke-width="4" stroke-linecap="round"/>
<path d="M115 47H131" stroke="#FEFEFE" stroke-width="4" stroke-linecap="round"/>
<path d="M98 242C98 243.322 96.1881 251.889 96.5 251.889C97.6442 251.889 98.166 249.39 98.7778 248.778C99.9828 247.573 101.841 248 103.5 248C110.667 248 117.833 248 125 248C132.758 248 140.42 250.889 148.444 249.944C150.581 249.693 157.15 248.716 158.222 247C159.92 244.283 166 243.01 166 240" stroke="#FEFEFE" stroke-width="4" stroke-linecap="round"/>
<path d="M100 246H125" stroke="#FEFEFE" stroke-width="4" stroke-linecap="round"/>
<path d="M104 245C107.584 245 112 245.722 115.5 244.944C120.937 243.736 111.566 240 110 240C109 240 105.375 239.439 105.056 240.556C104.424 242.766 107.359 241 108.444 241C114.323 241 111.57 240.86 110 244" stroke="#FEFEFE" stroke-width="4" stroke-linecap="round"/>
<path d="M104 251C98.9085 251 95.9342 252.132 94 256" stroke="#FEFEFE" stroke-width="4" stroke-linecap="round"/>
<path d="M95 256C99.9205 256 102.89 253 108 253C112.849 253 116.556 251 121.5 251C132 251 142.5 251 153 251" stroke="#FEFEFE" stroke-width="4" stroke-linecap="round"/>
<path d="M102 249C104.849 249 107.381 248.145 110 248C114.89 247.728 112.602 247.842 110.222 250.222C108.072 252.372 104.865 252.411 109 250.222C111.629 248.83 113.865 249 117 249" stroke="#FEFEFE" stroke-width="4" stroke-linecap="round"/>
<path d="M152 252C155 252 156.646 248.69 159.5 248.056C161.554 247.599 170.689 247.138 172 245.5C174.198 242.752 177.556 241.333 179.222 238C180.866 234.712 174.32 236 172 236" stroke="#FEFEFE" stroke-width="4" stroke-linecap="round"/>
<path d="M174 239C171.279 239.302 169.508 242.812 168 243C166.769 243.154 162.821 244.474 162 245.5C160.913 246.859 153.833 252 151.5 252C150.167 252 148.833 252 147.5 252C145.499 252 146.724 253.579 145.444 253.944C143.493 254.502 139.245 254.396 137.778 253.222C134.64 250.712 126.041 252 122 252" stroke="#FEFEFE" stroke-width="4" stroke-linecap="round"/>
<path d="M174 240C170.932 240 165.867 243.107 163.778 244.778C162.975 245.42 161.436 247.736 160.5 247.944C157.505 248.61 159.216 249.393 157 250.778C155.051 251.996 151.299 255.865 149 256C144.868 256.243 140.638 256 136.5 256C130.833 256 94 250.858 94 258" stroke="#FEFEFE" stroke-width="4" stroke-linecap="round"/>
<path d="M152 255C156.696 255 159.089 252 163.5 252C165.039 252 172.341 247.317 173 246" stroke="#FEFEFE" stroke-width="4" stroke-linecap="round"/>
<path d="M161 249C161.156 247.755 162.434 246.131 163 245" stroke="#FEFEFE" stroke-width="4" stroke-linecap="round"/>
<path d="M83.5201 74.6141C83.5649 74.2549 83.813 73.3748 84.0375 73.0942C84.1883 72.9056 84.8912 72.0707 84.9591 71.833C85.2264 70.8975 85.5854 70.0532 85.9131 69.149C86.3468 67.9517 86.4608 66.6764 87.1581 65.5918C87.3931 65.2262 87.7254 64.8283 87.8857 64.4277C88.5824 62.6857 90.5174 61.3695 91.4428 59.771C93.0852 56.9343 95.7667 54.6758 98.1368 52.5596C98.844 51.9282 100.28 51.7376 101.144 51.3308C101.849 50.999 102.778 50.0426 103.456 49.8918C104.401 49.6818 104.814 48.6468 105.574 48.1293C106.212 47.6962 106.815 47.2832 107.531 46.9652C108.819 46.3926 110.008 45.5454 111.298 45.1543C112.963 44.6498 114.35 44.6369 116.117 44.6369" stroke="white" stroke-width="4" stroke-linecap="round"/>
<path d="M82.6469 102.263C82.7614 103.408 84.296 104.864 85.0399 105.691C85.6575 106.377 86.6381 106.755 87.0772 107.502C88.1414 109.311 90.3067 110.49 91.6045 111.932C94.1296 114.738 96.9732 117.566 99.7537 119.79C100.548 120.426 100.923 121.204 101.856 121.698C102.471 122.024 104.233 123.187 104.766 123.218C105.17 123.242 106.074 123.504 106.205 123.962C106.408 124.672 106.83 124.169 107.385 124.447C108.562 125.035 109.199 125.546 110.587 125.546C112.926 125.546 114.738 127.756 116.99 127.875C119.622 128.013 121.939 129.039 124.557 129.039" stroke="white" stroke-width="4" stroke-linecap="round"/>
<path d="M129.214 124.382C128.08 123.249 126.885 122.702 126.885 120.89" stroke="white" stroke-width="4" stroke-linecap="round"/>
<path d="M158.027 172.695C158.106 174.201 158.609 175.585 158.609 177.125C158.609 178.074 158.609 179.022 158.609 179.971C158.609 181.523 158.609 183.075 158.609 184.628" stroke="white" stroke-width="4" stroke-linecap="round"/>
<path d="M148.131 51.3308C148.131 51.9004 148.285 52.7653 147.501 52.883C146.072 53.0973 143.188 51.4576 141.922 50.7487C140.302 49.8415 138.64 48.4738 137.298 47.1915C134.983 44.9793 130.739 43.1816 127.467 43.1816" stroke="white" stroke-width="4" stroke-linecap="round"/>
<path d="M105.057 81.308C105.149 80.4802 106.843 79.5119 107.385 78.8342C108.218 77.7939 109.797 78.0001 110.878 77.4598C111.961 76.9183 113.08 76.5638 114.193 76.0693C115.659 75.4176 117.615 74.3611 119.253 74.323C122.051 74.258 124.965 73.62 127.758 74.2584C128.665 74.4657 129.994 74.2071 130.669 75.0506C130.971 75.4291 131.678 75.4637 132.124 75.4872C133.153 75.5413 133.666 76.2569 134.517 76.6514C135.345 77.0352 139.8 81.3475 139.917 81.2433C141.323 79.9938 135.837 75.824 135.034 75.4225C132.321 74.0657 129.801 71.64 126.821 71.0569C124.521 70.6071 121.812 70.2485 119.464 70.2485C118.744 70.2485 115.871 69.8674 115.535 70.5395" stroke="white" stroke-width="4" stroke-linecap="round"/>
<path d="M108.55 87.4199C109.657 87.4199 111.925 86.6932 112.624 85.8192C113.577 84.6277 115.138 84.9631 116.262 84.0891C118.202 82.5805 120.554 81.5991 123.247 81.5991C124.006 81.5991 126.966 81.1479 127.403 81.8901C127.822 82.6024 128.292 82.4722 129.068 82.4722C129.555 82.4722 130.209 83.0507 130.669 83.2806C131.446 83.6691 132.729 84.7533 133.579 84.8005C134.046 84.8265 136.289 86.1462 136.49 86.5468" stroke="white" stroke-width="4" stroke-linecap="round"/>
<path d="M84.1021 74.9051C84.1021 75.3591 85.3755 76.7116 85.8484 77.0071C86.6964 77.5371 87.0126 79.3898 87.0126 80.2894C87.0126 81.4516 87.5946 82.4268 87.5946 83.6364C87.5946 84.849 87.5946 86.0617 87.5946 87.2744C87.5946 92.028 87.055 96.9394 84.9753 101.099" stroke="white" stroke-width="4" stroke-linecap="round"/>
<path d="M82.3559 101.099C82.3559 98.5122 83.886 96.713 84.7489 94.4695C85.0993 93.5586 85.1969 92.2397 85.2663 91.2681C85.3516 90.074 86.1394 88.8429 86.1394 87.7109C86.1394 85.4638 86.4305 83.1618 86.4305 80.8715C86.4305 79.1679 84.7441 77.9353 84.1021 76.6514" stroke="white" stroke-width="4" stroke-linecap="round"/>
<path d="M73.0426 83.6364C72.3628 84.2406 71.6088 84.8513 72.9294 85.2532C73.4293 85.4054 76.8738 86.0182 76.0985 85.6736C74.5696 84.9941 72.9365 85.4803 71.4257 85.9C70.1574 86.2523 69.8647 86.5468 71.2963 86.5468" stroke="#FF8D07" stroke-width="4" stroke-linecap="round"/>
<path d="M47.1399 87.1288C48.4896 87.1288 49.8673 87.0496 51.2145 87.1288C51.6305 87.1533 51.7463 87.7109 52.5242 87.7109C53.1548 87.7109 53.7854 87.7109 54.416 87.7109C57.4075 87.7109 60.6884 88.293 63.5837 88.293C66.1232 88.293 68.361 88.5841 70.8598 88.5841C73.7424 88.5841 76.643 88.293 79.4455 88.293" stroke="#FF8D07" stroke-width="4" stroke-linecap="round"/>
<path d="M47.431 92.6586C50.0882 92.6586 52.5673 92.9497 55.1597 92.9497C58.2509 92.9497 61.2052 93.9504 64.3113 94.1138C69.6109 94.3928 75.0108 94.1138 80.3186 94.1138" stroke="#FF8D07" stroke-width="4" stroke-linecap="round"/>
<path d="M128.049 92.0765C128.221 90.7008 130.2 89.4091 130.669 88.002" stroke="#FF0707" stroke-width="3" stroke-linecap="round"/>
<path d="M132.415 94.1138C132.563 92.4891 134.16 89.0214 135.616 88.293" stroke="#FF0707" stroke-width="3" stroke-linecap="round"/>
<path d="M137.363 94.1138C137.949 93.4543 137.817 91.9742 138.656 91.4945C139.085 91.2497 139.691 89.3939 139.691 88.8751" stroke="#FF0707" stroke-width="3" stroke-linecap="round"/>
<path d="M133.579 81.017C134.22 81.057 135.17 81.71 135.342 82.3105C135.414 82.5632 137.327 82.7632 137.654 82.7632C138.093 82.7632 139.754 83.0002 139.982 82.6016C140.299 82.0477 140.643 80.9773 141.146 80.726" stroke="#100606" stroke-width="3" stroke-linecap="round"/>
<path d="M137.072 82.1811C137.791 82.1811 138.912 82.397 139.465 81.9548C139.864 81.6352 140.273 81.8961 140.273 81.1625C140.273 80.7047 140.156 80.3481 140.564 80.1439" stroke="#100606" stroke-width="3" stroke-linecap="round"/>
<path d="M134.743 79.5618C135.593 79.5618 136.781 78.069 136.781 77.2335" stroke="#100606" stroke-width="3" stroke-linecap="round"/>
<path d="M142.601 43.4727C143.314 43.5146 145.508 43.7354 145.868 44.3458C146.405 45.2587 148.094 45.4594 149.004 45.51C149.902 45.5599 151.113 46.4762 151.915 46.9005C152.93 47.4383 154.069 47.7482 155.051 48.4851C156.971 49.9245 159.56 50.7529 161.454 52.2686C162.114 52.7962 163.522 53.3261 163.912 53.9502C164.273 54.5273 165.575 55.8286 166.111 56.0521C167.072 56.4524 168.122 58.443 168.73 59.2536C169.039 59.6648 169.586 60.7354 169.668 61.2262C169.728 61.5857 170.208 61.4459 170.25 61.8083C170.278 62.0408 170.157 62.4187 170.315 62.6167C172.158 64.9207 172.935 67.5976 174.26 70.2485C175.192 72.1125 175.198 75.1232 175.198 77.1688C175.198 78.8546 175.78 80.4389 175.78 82.1812C175.78 83.4423 175.78 84.7035 175.78 85.9647" stroke="white" stroke-width="3" stroke-linecap="round"/>
<path d="M130.378 137.77C130.627 140.258 131.833 142.512 131.833 145.046C131.833 145.871 131.833 146.695 131.833 147.52C131.833 149.013 131.399 150.254 131.267 151.708C131.065 153.932 130.378 156.287 130.378 158.499C130.378 160.212 129.505 161.28 129.505 163.026C129.505 164.812 129.397 165.852 128.761 167.489C128.274 168.74 127.758 170.904 127.758 172.258C127.758 173.124 127.048 175.255 126.529 175.832C125.721 176.73 125.04 178.228 124.266 179.389" stroke="white" stroke-width="3" stroke-linecap="round"/>
<path d="M128.631 170.367C128.631 171.749 127.113 173.405 126.238 174.376C125.385 175.324 125.064 176.681 124.201 177.578C121.463 180.426 119.98 183.853 118.283 187.247C117.493 188.828 116.995 190.461 116.1 191.952C115.24 193.386 114.855 194.944 113.659 196.14C113.192 196.607 112.116 198.514 112.042 199.18C111.981 199.727 111.349 200.673 111.104 201.217C110.679 202.163 110.381 203.975 110.296 205C110.151 206.743 109.284 207.981 108.695 209.512C107.537 212.522 105.677 215.488 105.073 218.809C104.859 219.985 104.317 221.293 103.747 222.317C102.908 223.829 102.919 225.334 102.211 226.829C101.59 228.14 101.098 229.605 100.627 230.968C100.232 232.107 99.2363 233.641 99.2363 234.816C99.2363 236.449 98.0721 237.577 98.0721 239.198C98.0721 239.88 97.49 240.144 97.49 240.944C97.49 241.572 97.199 242.156 97.199 242.836" stroke="white" stroke-width="3" stroke-linecap="round"/>
<path d="M110.878 233.231C116.574 229.593 122.205 225.859 127.952 222.301C128.714 221.83 129.384 221.37 130.2 221.008C130.212 221.002 127.249 223.529 126.982 223.756C123.821 226.451 120.217 229.948 115.793 230.03C113.024 230.081 112.701 228.06 114.063 226.101C115.448 224.11 114.952 225.241 114.952 226.845C114.952 227.273 114.633 229.702 115.082 229.965C117.639 231.469 118.324 234.181 119.965 236.368C120.395 236.942 120.191 237.493 119.771 238.034C118.905 239.146 119.027 240.171 119.027 241.542C119.027 242.998 119.818 243.709 121.21 243.709C122.527 243.709 124.435 242.703 125.592 242.124C127.451 241.195 128.843 239.287 130.475 238.017C131.322 237.359 132.049 236.433 133.143 236.433C134.426 236.433 133.682 237.63 133.094 238.179C132.122 239.087 130.46 238.942 129.44 239.861C129.124 240.145 130.121 240.285 129.505 239.052" stroke="white" stroke-width="3" stroke-linecap="round"/>
<path d="M107.968 237.597C106.675 237.468 105.554 237.015 104.184 237.015" stroke="white" stroke-width="3" stroke-linecap="round"/>
<path d="M162.101 251.276C164.233 250.124 167.891 248.424 169.021 246.037C169.628 244.756 170.552 243.836 171.269 242.561C171.959 241.334 171.73 241.872 171.414 240.766C171.035 239.439 171.094 238.029 171.123 236.659C171.183 233.86 171.967 232.3 170.671 229.707C169.829 228.024 169.343 225.86 168.051 224.5C167.52 223.941 166.836 222.683 166.176 222.463" stroke="white" stroke-width="3" stroke-linecap="round"/>
<path d="M148.713 173.568C149.603 179.795 150.595 186.021 151.624 192.195" stroke="white" stroke-width="3" stroke-linecap="round"/>
<path d="M160.937 199.18C160.937 200.758 161.942 202.256 162.117 203.836C162.229 204.842 162.885 206.288 163.556 207.038C164.591 208.194 165.114 209.559 165.917 210.821C166.699 212.049 167.175 213.326 167.566 214.734C167.698 215.208 167.789 216.118 168.084 216.497C168.787 217.401 169.408 218.541 169.959 219.553C170.326 220.225 171.011 220.88 171.544 221.428C172.11 222.01 172.669 223.186 173.306 223.611C173.747 223.905 174.095 224.27 174.47 224.646C174.889 225.064 174.706 225.606 175.036 225.955C176.094 227.076 176.95 228.323 177.882 229.577C178.454 230.347 179.127 230.757 179.79 231.421C180.368 231.998 180.541 232.854 181.181 233.377C181.555 233.683 182.765 235.062 182.765 235.56C182.765 236.203 181.39 237.02 180.889 237.306C180.538 237.507 180.201 237.478 179.855 237.662C179.328 237.941 179.529 238.584 178.852 238.777C178.516 238.874 178.459 239.497 178.383 239.764C178.331 239.947 177.764 240.065 177.591 240.281C177.117 240.874 176.806 241.777 176.217 242.367C175.021 243.562 174.159 245.829 172.579 246.619" stroke="white" stroke-width="3" stroke-linecap="round"/>
<path d="M180.146 234.105C178.566 231.232 175.587 229.349 173.581 226.796C172.447 225.353 170.883 223.758 169.377 222.754" stroke="white" stroke-width="3" stroke-linecap="round"/>
<path d="M92.2513 257.388C92.2513 255.785 91.7188 253.048 92.8495 251.729C93.6068 250.845 94.1363 250.019 94.5149 248.883C94.8338 247.926 95.5561 246.851 95.7276 245.908C95.9908 244.46 97.0148 243.174 97.5547 241.898C98.3251 240.077 98.7911 238.015 100.109 236.433" stroke="white" stroke-width="3" stroke-linecap="round"/>
<path d="M91.6692 252.149C91.6692 251.036 91.3884 249.704 92.0896 248.802C92.4557 248.331 92.1254 247.697 92.5423 247.201C92.9291 246.742 93.393 245.996 93.4154 245.391C93.4562 244.291 94.4163 243.575 94.5634 242.545C94.7811 241.021 96.2992 239.681 96.6007 238.325C97.0581 236.267 97.2592 234.248 98.5895 232.585C99.1999 231.822 99.2363 230.541 99.2363 229.61C99.2363 228.026 100.248 227.213 100.417 225.697C100.488 225.051 101.252 224.974 101.274 224.436C101.303 223.711 101.318 223.169 101.5 222.463C101.834 221.166 102.208 219.777 102.858 218.663C103.388 217.754 103.814 216.405 104.119 215.413C104.335 214.713 104.321 214.597 104.831 214.087C105.207 213.711 104.901 213.301 105.122 212.859C106.162 210.777 106.796 208.213 108.113 206.31C108.784 205.341 109.574 203.825 110.005 202.737C110.462 201.581 110.878 201.003 110.878 199.762" stroke="white" stroke-width="3" stroke-linecap="round"/>
<path d="M124.557 245.746C126.815 245.746 129.003 245.562 131.251 245.455C133.654 245.341 136.023 244.795 138.43 244.647C140.669 244.509 142.831 244.762 145.059 244.857C146.903 244.935 148.673 244.582 150.46 244.582" stroke="white" stroke-width="3" stroke-linecap="round"/>
<path d="M91.3782 260.88C91.3782 259.862 91.3782 258.843 91.3782 257.824C91.3782 256.739 91.9602 255.88 91.9602 254.898C91.9602 253.896 92.5061 252.482 92.898 251.567C93.5305 250.091 93.3464 249.017 94.5796 247.784" stroke="white" stroke-width="3" stroke-linecap="round"/>
<path d="M89.923 259.425C89.923 258.261 89.923 257.097 89.923 255.933C89.923 255.374 89.9015 254.81 89.923 254.251C89.943 253.729 90.4492 253.525 90.505 253.022C90.5991 252.176 91.0616 250.874 91.4428 250.112C91.867 249.264 92.1789 248.147 92.8334 247.492" stroke="white" stroke-width="3" stroke-linecap="round"/>
<path d="M89.923 263.209C89.923 259.956 90.2077 256.527 91.6692 253.604" stroke="white" stroke-width="3" stroke-linecap="round"/>
<path d="M89.3409 264.082C89.9214 264.017 90.1536 262.823 90.4404 262.336C90.9337 261.497 91.7072 260.083 92.5585 259.587C94.1711 258.646 96.211 257.961 97.7811 256.951C99.4425 255.883 101.819 255.99 103.764 255.933C104.756 255.904 105.684 255.351 106.803 255.351C107.892 255.351 108.981 255.351 110.069 255.351C114.175 255.351 119.435 254.555 123.377 255.787C125.716 256.518 129.111 255.933 131.542 255.933C134.743 255.933 137.945 255.933 141.146 255.933" stroke="white" stroke-width="3" stroke-linecap="round"/>
<path d="M146.967 255.933C148.568 255.933 150.168 255.933 151.769 255.933C152.718 255.933 153.603 255.933 154.534 255.706C155.408 255.494 156.831 255.336 157.59 254.914C158.291 254.524 159.285 254.705 160.064 254.316C160.824 253.936 161.25 253.895 162.101 253.895C163.07 253.895 163.722 253.197 164.591 253.038C165.741 252.829 166.323 252.304 167.275 251.923C169.514 251.027 171.398 249.428 173.177 247.945C173.668 247.536 175.162 245.849 175.78 245.746C176.769 245.581 176.931 243.895 177.672 243.402C178.417 242.905 178.124 241.963 178.707 241.526C179.301 241.081 179.569 240.372 180.081 239.861C180.532 239.41 180.728 238.354 180.728 237.743C180.728 237.176 181.361 236.621 181.601 236.142" stroke="white" stroke-width="3" stroke-linecap="round"/>
<path d="M184.22 236.142C184.06 236.861 182.743 238.251 182.248 238.826C181.301 239.924 180.641 241.317 179.564 242.415C177.802 244.212 176.13 246.347 174.196 247.929C170.505 250.948 166.249 252.416 161.81 253.895" stroke="white" stroke-width="3" stroke-linecap="round"/>
<path d="M138.527 221.299C136.802 221.299 135.077 221.299 133.353 221.299C130.587 221.299 128.365 223.372 126.416 225.066C124.173 227.017 122.252 229.852 121.064 232.585C120.055 234.907 119.779 237.433 118.736 239.78C118.395 240.547 118.158 241.365 117.798 242.124C117.539 242.671 117.466 243.878 117.135 244.275C116.771 244.712 117.132 245.35 116.763 245.811C116.537 246.093 116.14 247.947 116.117 248.366C116.075 249.117 115.535 249.477 115.535 250.257C115.535 251.103 115.409 251.75 115.26 252.57C115.048 253.732 115.169 255.208 114.661 256.224" stroke="#9B9B9B" stroke-width="3" stroke-linecap="round"/>
<path d="M117.281 129.621C120.099 130.956 122.897 131.718 125.883 132.596C128.771 133.445 131.513 133.211 133.644 135.506C135.267 137.254 136.49 140.656 136.49 143.009C136.49 144.744 136.902 147.084 136.198 148.668C135.041 151.272 134.529 154.196 133.288 156.817C132.69 158.08 131.913 159.656 131.833 161.053C131.762 162.277 130.867 163.485 130.604 164.74C130.452 165.464 129.996 166.934 129.569 167.521C129.252 167.957 129.705 168.549 129.278 168.976C128.926 169.328 128.483 169.149 128.114 169.558C127.731 169.984 127.702 170.395 127.176 170.658" stroke="#9B9B9B" stroke-width="3" stroke-linecap="round"/>
<path d="M127.176 170.658C127.176 169.556 127.758 168.592 127.758 167.602C127.758 166.688 127.802 165.992 128.049 165.128C128.772 162.6 129.134 159.844 129.214 157.205C129.366 152.166 129.879 146.97 129.505 141.909C129.424 140.82 127.842 139.038 127.176 138.207C126.702 137.614 125.267 135.525 124.557 135.442C123.325 135.297 122.608 133.446 121.517 132.822C120.473 132.225 119.948 130.785 118.736 130.785" stroke="#9B9B9B" stroke-width="3" stroke-linecap="round"/>
<path d="M126.012 134.278C127.597 134.436 128.985 136.875 130.216 137.77C130.874 138.248 130.618 139.287 130.83 139.985C131.309 141.557 131.42 143.18 131.849 144.755C132.196 146.027 134.913 153.547 132.706 154.65" stroke="#9B9B9B" stroke-width="3" stroke-linecap="round"/>
<path d="M130.669 158.434C130.451 155.825 130.087 153.134 130.087 150.511C130.087 149.519 130.087 148.528 130.087 147.536C130.087 146.509 130.649 146.859 130.669 147.73C130.707 149.453 130.669 151.181 130.669 152.904C130.669 153.792 129.936 155.05 130.798 153.874C131.554 152.844 133.5 149.081 131.833 148.247" stroke="#9B9B9B" stroke-width="3" stroke-linecap="round"/>
<path d="M135.325 147.374C135.325 146.426 134.69 144.286 134.291 143.429C133.471 141.672 133.313 139.694 132.932 137.835C132.781 137.094 132.268 136.402 131.833 135.797C131.477 135.303 130.994 135.558 130.523 135.296C129.693 134.835 128.828 135.544 128.34 134.569" stroke="#9B9B9B" stroke-width="3" stroke-linecap="round"/>
<path d="M131.813 167.417C131.018 168.212 130.724 168.756 130.376 169.724C130.308 169.913 128.946 171.47 128.901 171.482C127.862 171.779 126.327 173.263 125.686 174.224" stroke="#FEFEFE" stroke-width="3" stroke-linecap="round"/>
<path d="M105.945 208.942C105.945 207.222 106.11 206.801 107.306 205.538C108.07 204.733 108.004 203.713 108.403 202.815C109.133 201.174 110.521 199.053 111.731 197.539C112.193 196.962 112.762 194.776 113.263 194.665C114.201 194.457 113.729 193.235 114.454 192.945C115.343 192.589 115.631 190.812 115.986 190.032C116.766 188.316 117.474 186.375 118.274 184.776C120.267 180.789 123.503 177.857 125.686 174.035C126.651 172.347 127.859 170.103 129.582 169.119C131.375 168.094 132.596 165.76 134.196 164.694" stroke="#FEFEFE" stroke-width="3" stroke-linecap="round"/>
<path d="M107.987 202.815C107.04 202.874 105.264 206.343 105.264 207.429C105.264 208.506 104.972 210.005 104.659 211.06C104.378 212.009 103.619 213.453 103.562 214.388C103.503 215.369 103.073 216.334 102.863 217.281C102.723 217.91 102.386 218.474 102.05 219.002C101.636 219.652 102.018 220.503 101.671 221.195C100.468 223.601 100.273 226.307 99.3077 228.816C97.5895 233.283 96.2668 237.828 94.3724 242.09C93.6325 243.755 92.9661 245.507 92.4058 247.328C92.1078 248.297 92.6642 249.545 92.2545 250.467C91.777 251.542 91.4392 252.589 90.9687 253.53" stroke="#FEFEFE" stroke-width="3" stroke-linecap="round"/>
<path d="M115.816 127.253C117.107 127.253 118.908 127.934 116.667 127.934C114.062 127.934 116.633 127.718 117.688 127.953C118.456 128.123 118.892 128.615 119.73 128.615C120.427 128.615 120.897 128.527 121.432 128.955C122.437 129.759 123.729 129.635 124.854 129.957C125.907 130.258 127.285 131.191 128.409 131.754C129.188 132.143 131.711 132.793 132.078 133.38C132.515 134.079 133.731 133.571 134.46 133.796C135.329 134.063 136.032 134.714 136.843 135.006C137.753 135.334 140.322 136.723 140.322 137.805" stroke="#FEFEFE" stroke-width="3" stroke-linecap="round"/>
<path d="M133.175 133.72C134.118 133.72 135.539 135.896 136.162 136.519C136.552 136.909 136.729 137.828 137.108 138.315C137.663 139.03 137.279 139.958 137.77 140.546C138.064 140.9 138.28 142.71 138.28 143.25C138.28 144.242 138.526 145.359 138.791 146.314C139.251 147.971 138.961 150.047 138.961 151.76" stroke="#FEFEFE" stroke-width="3" stroke-linecap="round"/>
<path d="M115.475 129.295C118.92 129.295 122.803 130.34 126.216 129.56C129.061 128.91 132.074 128.73 134.725 127.404C136.207 126.663 137.509 125.583 138.923 124.719C139.685 124.254 140.164 123.448 141.003 123.169" stroke="#C8C8C8" stroke-width="3" stroke-linecap="round"/>
<path d="M115.135 128.615C113.734 128.615 113.592 128.401 112.582 127.593C112.117 127.221 111.838 127.253 111.221 127.253C110.41 127.253 110.377 126.611 109.689 126.572C107.472 126.449 106.109 125.463 104.243 124.53" stroke="#C8C8C8" stroke-width="3" stroke-linecap="round"/>
<path d="M107.306 123.169C106.075 123.169 105.023 122.148 103.903 122.148C102.884 122.148 101.517 121.962 100.65 121.467C100.218 121.22 97.551 120.1 98.627 120.937C98.9303 121.173 99.3862 122.048 99.667 122.129C100.312 122.313 100.419 122.256 100.915 122.753C101.368 123.205 101.099 123.467 101.861 123.509C102.266 123.532 103.269 124.181 103.487 124.53C103.96 125.288 105.322 124.942 105.945 125.721C106.609 126.551 108.246 126.232 109.178 126.232C110.509 126.232 111.769 126.913 113.093 126.913" stroke="#DFDFDF" stroke-width="2" stroke-linecap="round"/>
<path d="M103.222 122.148C105.04 122.35 106.173 124.184 107.817 124.549C108.872 124.784 109.857 125.892 110.899 125.892C111.795 125.892 113.472 126.349 113.773 127.253" stroke="#DFDFDF" stroke-width="2" stroke-linecap="round"/>
<path d="M125.686 131.338C128.186 131.338 130.815 130.997 133.175 130.997" stroke="#DFDFDF" stroke-width="2" stroke-linecap="round"/>
<path d="M126.027 131.678C128.246 131.678 129.689 132.427 131.132 134.231C131.262 134.393 132.565 135.388 132.834 135.422C133.866 135.551 133.09 136.783 134.196 136.783" stroke="#DFDFDF" stroke-width="2" stroke-linecap="round"/>
<path d="M130.792 131.338C131.385 131.338 132.286 131.506 132.834 131.262C133.413 131.004 133.687 130.036 134.196 129.976C134.92 129.891 134.881 129.028 135.557 128.69C136.32 128.309 136.694 127.593 137.599 127.593" stroke="#DFDFDF" stroke-width="2" stroke-linecap="round"/>
<path d="M132.153 132.699C133.273 132.699 135.238 131.661 136.068 130.997C136.461 130.682 136.911 130.153 137.259 129.825C137.773 129.339 138.34 128.857 138.772 128.425C139.659 127.538 140.485 126.686 141.268 125.816C142.099 124.893 142.856 123.207 143.386 122.148" stroke="#F9F9F9" stroke-width="2" stroke-linecap="round"/>
<path d="M132.153 138.485C132.527 138.858 133.668 140.429 134.025 140.509C135.34 140.801 133.18 139.306 133.004 139.166C132.503 138.765 131.018 138.143 130.792 137.634C130.361 136.666 131.784 137.966 132.343 138.126C132.632 138.209 133.21 137.992 133.439 138.221C133.703 138.484 133.592 139.126 133.931 139.431C134.514 139.956 134.569 138.862 134.46 138.561C134.302 138.122 133.692 137.92 133.439 137.464C132.595 135.945 130.147 136.121 128.75 135.422" stroke="#9B9B9B" stroke-width="2" stroke-linecap="round"/>
<path d="M96.755 118.403C97.6157 118.403 99.9873 119.636 100.499 120.276C101.322 121.305 103.258 121.639 104.508 122.072C107.49 123.104 110.511 123.849 113.773 123.849" stroke="white" stroke-width="2" stroke-linecap="round"/>
<path d="M114.454 125.892C112.586 125.892 111.437 125.017 109.689 124.606C109.183 124.487 108.233 124.738 107.836 124.341C107.425 123.93 107.4 123.657 106.815 123.49C105.061 122.989 103.179 121.913 102.201 120.446" stroke="white" stroke-width="2" stroke-linecap="round"/>
<path d="M116.532 256.487C116.532 254.537 116.059 251.737 116.788 249.915C117.146 249.019 117.699 247.538 117.829 246.629C118.021 245.28 118.525 244.611 119.088 243.343C119.305 242.854 119.101 242.219 119.234 241.7C119.428 240.945 119.883 240.271 120.147 239.546C120.545 238.451 120.69 237.146 121.206 236.114C121.636 235.253 121.961 234.519 122.447 233.667C123.014 232.676 123.197 231.277 123.908 230.363C124.575 229.506 125.101 228.192 125.66 227.241C126.161 226.39 127.749 226.057 128.526 225.452C129.554 224.653 132.094 222.641 133.127 222.641C134.065 222.641 134.829 221.655 135.92 221.655C136.856 221.655 137.538 221.984 138.384 221.984C139.911 221.984 142.492 223.486 142.492 224.941" stroke="#DFDFDF" stroke-width="2" stroke-linecap="round"/>
<path d="M113.904 256.815C114.142 255.506 114.561 254.593 114.561 253.201C114.561 252.046 115.16 251.4 115.218 250.243C115.275 249.11 116.117 248.112 116.204 247.03C116.325 245.511 116.567 243.333 117.19 241.901C117.657 240.826 117.584 239.651 118.011 238.542C118.496 237.281 119.061 236.031 119.745 234.799C120.339 233.73 120.299 232.8 120.804 231.696C121.223 230.779 121.899 229.917 122.1 229.012C122.258 228.301 122.954 228.178 123.086 227.716C123.251 227.139 123.115 226.902 123.597 226.42C124.297 225.72 124.633 224.814 125.405 224.12C125.848 223.721 126.832 222.835 127.048 222.459C127.572 221.541 128.678 221.411 129.421 220.743C130.743 219.553 133.135 220.012 134.77 220.012C136.577 220.012 138.384 220.012 140.192 220.012" stroke="#9B9B9B" stroke-width="2" stroke-linecap="round"/>
<path d="M143.806 225.27C143.738 223.374 143.334 218.532 140.52 218.698C139.437 218.762 141.333 221.008 141.579 221.254C142.248 221.923 140.59 221.094 140.338 220.743C139.517 219.603 138.697 218.369 137.234 218.369C135.613 218.369 134.647 217.383 132.962 217.383" stroke="#FEFEFE" stroke-width="2" stroke-linecap="round"/>
<path d="M132.305 222.641C134.441 222.641 136.577 222.641 138.713 222.641C139.984 222.641 139.838 223.705 140.849 224.211C141.655 224.614 142.011 225.534 142.492 226.256" stroke="#DFDFDF" stroke-width="2" stroke-linecap="round"/>
<path d="M142.492 225.27C142.14 225.226 141.303 223.935 140.922 223.554C140.34 222.972 139.521 222.92 139.06 222.459C138.598 221.997 138.267 221.43 137.727 220.998C136.987 220.406 136.364 220.528 135.591 220.012" stroke="#DFDFDF" stroke-width="2" stroke-linecap="round"/>
<path d="M133.291 220.012C134.551 220.012 137.716 219.509 138.549 220.341" stroke="#9B9B9B" stroke-width="2" stroke-linecap="round"/>
<path d="M134.277 216.069C135.453 217.246 136.481 218.366 138.056 218.716C138.683 218.855 138.743 219.855 139.37 219.994C140.191 220.176 140.34 220.279 140.922 220.925C141.671 221.757 142.441 222.601 143.313 223.298C144.206 224.012 144.915 225.496 145.778 225.927" stroke="white" stroke-width="2" stroke-linecap="round"/>
<path d="M106.96 200.864C106.96 201.316 106.162 203.476 105.711 203.576C104.714 203.798 104.491 205.603 104.122 206.414C103.933 206.831 103.414 207.246 103.34 207.688C103.233 208.333 102.523 208.645 102.419 209.264C102.36 209.623 102.057 210.46 101.839 210.74C101.448 211.243 101.484 211.845 101.284 212.443" stroke="#3BB488" stroke-width="2" stroke-linecap="round"/>
<path d="M106.506 205.405C106.609 204.584 107.414 203.942 107.414 203.021C107.414 202.418 107.562 202.284 107.818 201.772C108.127 201.154 108.797 201.276 109.003 200.864" stroke="white" stroke-width="2" stroke-linecap="round"/>
<path d="M96.7482 120.72C97.3782 120.79 97.1519 121.662 97.7259 121.826C98.3456 122.003 98.8233 122.823 99.3879 122.948C99.7372 123.026 100.08 123.522 100.433 123.663C100.878 123.842 101.362 124.222 101.703 124.564C102.914 125.774 104.703 126.378 106.098 127.337C107.162 128.069 108.212 128.665 109.417 129.128C110.382 129.499 111.3 130.085 112.309 130.373C113.708 130.773 114.943 131.415 116.106 132.112" stroke="#3BB488" stroke-width="2" stroke-linecap="round"/>
<path d="M98.0449 120.349C97.8405 120.168 97.4338 120.146 97.3039 119.886" stroke="#DFDFDF" stroke-width="2" stroke-linecap="round"/>
<path d="M96.563 117.941C96.7217 118.082 96.9219 118.022 97.1187 118.034C97.2999 118.045 97.3267 118.311 97.4429 118.404C97.6674 118.584 97.8687 118.894 98.2353 118.955C98.9412 119.073 99.4887 119.979 100.268 119.979" stroke="white" stroke-width="2" stroke-linecap="round"/>
<path d="M96.1925 118.127C96.2483 118.35 96.7941 118.109 96.9335 118.353C97.0071 118.482 97.2686 118.618 97.3966 118.682" stroke="white" stroke-width="2" stroke-linecap="round"/>
<path d="M91.0056 121.368C91.6019 121.511 92.2017 121.64 92.7963 121.79C93.0597 121.857 93.5774 121.915 93.7791 122.15C93.9351 122.332 94.9781 122.475 95.2096 122.516C95.459 122.56 95.7319 122.592 95.9866 122.572C96.2292 122.554 95.7935 122.119 95.6419 121.929C95.1519 121.314 94.6316 120.707 94.0519 120.175C93.9371 120.069 93.5975 119.814 93.7534 119.814C94.0332 119.814 94.5013 120.445 94.7311 120.607C95.0844 120.856 95.5829 121.141 95.9866 121.296C96.4 121.455 96.7758 121.686 97.1393 121.924C97.416 122.105 97.8315 122.278 98.0398 122.521C98.0729 122.56 98.3226 122.657 98.3073 122.619C98.2502 122.476 97.8594 122.334 97.731 122.295C97.4899 122.22 97.1212 121.961 96.954 121.811C96.7778 121.652 96.5236 121.555 96.3571 121.389C96.2906 121.322 96.2249 121.12 96.141 121.096C95.9865 121.051 95.8916 121.132 95.7757 120.993C95.689 120.889 95.6359 120.766 95.4927 120.725C95.3161 120.675 95.3575 120.524 95.2148 120.442C95.0148 120.328 95.2746 120.339 95.3589 120.463C95.4887 120.654 95.563 120.739 95.7294 120.905C95.9767 121.153 96.331 121.238 96.5835 121.44C96.6494 121.493 96.8002 121.535 96.882 121.559C96.9584 121.581 97.0825 121.819 97.165 121.883C97.3779 122.049 97.5382 122.28 97.7259 122.387C98.1712 122.642 98.032 122.377 97.7876 122.181C97.6752 122.091 97.7009 121.915 97.5818 121.852C97.4648 121.79 97.2483 121.831 97.1187 121.831" stroke="#3BB488" stroke-width="2" stroke-linecap="round"/>
<path d="M97.6744 122.387C97.4136 122.094 97.1886 121.932 96.8871 121.698C96.8122 121.639 96.5522 121.475 96.4703 121.461C96.3307 121.436 96.3396 121.264 96.2388 121.183C96.0573 121.038 95.7943 120.85 95.7345 120.581C95.6409 120.16 95.9413 120.294 96.141 120.494C96.4446 120.797 96.6088 121.304 96.9746 121.533C97.456 121.834 97.9731 122.092 98.4154 122.387" stroke="#3BB488" stroke-width="2" stroke-linecap="round"/>
<path d="M42.8956 84.8055C43.4832 84.8055 44.019 84.6418 44.5836 84.4845C44.9726 84.3761 45.3745 84.4 45.7486 84.2468C46.8438 83.7979 47.851 83.1665 48.9581 82.749C50.4858 82.1728 52.0543 81.6864 53.5704 81.0847C53.8069 80.9909 54.3251 81.03 54.4738 80.847C54.5987 80.6933 54.9432 80.6869 55.1157 80.6092C55.7364 80.3299 56.3283 79.9817 56.9464 79.6939C57.8956 79.2519 58.9034 78.9938 59.9063 78.7073" stroke="#3BB488" stroke-width="2" stroke-linecap="round"/>
<path d="M54.664 81.5959C55.2954 81.5643 55.9626 81.3431 56.566 81.1679C58.0434 80.739 59.4726 80.2967 60.8989 79.7058C63.8329 78.4903 66.7669 77.3398 69.856 76.5676" stroke="#3BB488" stroke-width="2" stroke-linecap="round"/>
<path d="M42.8956 86.0893C45.4116 85.1574 48.0287 84.3651 50.4975 83.2542C51.231 82.9241 51.8962 82.435 52.6551 82.1902C53.2896 81.9855 53.6539 81.4011 54.3431 81.3819C54.9652 81.3646 55.6899 80.8718 56.2688 80.6568C57.7829 80.0944 59.2065 79.2588 60.7622 78.8143" stroke="#3BB488" stroke-width="2" stroke-linecap="round"/>
<path d="M80.1266 74.5348C79.9798 75.1954 78.9541 75.0698 78.4683 75.0698C78.1097 75.0698 77.7511 75.0698 77.3925 75.0698C76.9786 75.0698 76.6124 75.3126 76.2157 75.3848C75.342 75.5436 74.4574 75.8579 73.5767 75.9256C73.1905 75.9554 72.8755 76.2466 72.4474 76.2466C72.1313 76.2466 71.8761 76.3536 71.5678 76.3536C71.2055 76.3536 70.9968 76.5934 70.6584 76.6686C70.3953 76.7271 70.1726 76.729 69.9095 76.7875C69.4518 76.8892 68.9861 77.0105 68.5127 77.1084C67.913 77.2325 67.0629 77.3863 66.4978 77.6374C66.0774 77.8243 65.2794 78.3521 64.8514 78.3863C64.4672 78.4171 64.0402 78.6958 63.6508 78.7905C63.3029 78.8751 62.8336 78.8627 62.5572 79.1114C62.3132 79.3311 61.8778 79.6065 61.5646 79.6761C61.3266 79.729 61.2928 79.6732 61.0416 79.688C60.371 79.7274 59.7363 80.0253 59.0683 80.0921C58.023 80.1967 56.8793 80.8242 55.9003 81.2274C55.504 81.3906 55.1108 81.5092 54.7235 81.7029C54.549 81.7901 54.1542 81.7494 54.0459 81.9168C53.921 82.1098 53.8424 82.1332 53.6179 82.214C53.3698 82.3034 53.2697 82.5367 53.0592 82.642C52.8846 82.7293 52.7061 82.7549 52.5243 82.8559C52.4204 82.9137 52.3092 83.0875 52.2034 83.0937C51.3885 83.1416 50.4882 84.1298 49.8616 84.5855C49.1511 85.1022 48.3964 85.1968 47.6565 85.6078C46.8263 86.0691 45.849 86.6846 44.9283 86.9214C44.1468 87.1224 43.1676 87.6941 42.3607 87.6941" stroke="#3BB488" stroke-width="2" stroke-linecap="round"/>
<path d="M42.0397 88.7639C42.0736 89.103 42.4551 89.3884 42.4677 89.703C42.4806 90.0254 42.4677 90.2575 42.7292 90.4816C42.9423 90.6643 43.2304 91.2789 43.377 91.5396C43.495 91.7494 43.7024 92.1292 43.8585 92.2944C44.2167 92.6737 44.7321 93.2315 45.3028 93.3584C45.6055 93.4256 45.8342 93.6623 46.1289 93.7685C46.3645 93.8533 46.6129 94.1589 46.8065 94.2142C47.3851 94.3796 47.9588 94.8977 48.5658 94.9691C49.2365 95.048 49.9118 95.504 50.5748 95.504C51.2928 95.504 51.994 95.894 52.6729 96.0449C52.802 96.0736 52.7962 96.2391 52.976 96.2529C53.2639 96.2751 53.6408 96.3276 53.9151 96.4074C54.5613 96.5954 55.2037 96.734 55.8468 96.8948C56.6185 97.0877 57.2856 97.4502 58.0281 97.6199C58.7901 97.7941 59.5697 98.0672 60.3343 98.2856C61.1462 98.5176 61.9331 98.7206 62.7117 98.9513C63.2091 99.0987 63.7609 99.1945 64.2333 99.4149C64.9772 99.7621 65.6815 99.7684 66.4919 99.9142C68.0065 100.187 69.5349 100.312 71.0328 100.526C71.3395 100.57 71.7321 100.633 72.0195 100.639C72.7303 100.656 73.7348 100.436 74.4029 100.693C75.4544 101.097 76.7329 101.067 77.8561 101.067C78.0982 101.067 78.6555 100.97 78.8368 101.121C79.0051 101.261 79.2302 101.421 79.3777 101.495" stroke="#3BB488" stroke-width="2" stroke-linecap="round"/>
<path d="M43.7515 89.0849C43.7515 88.8585 43.6513 88.3271 43.8585 88.2052C44.1854 88.0129 44.2209 87.667 44.5479 87.4801C45.0017 87.2208 45.4893 86.7675 45.8912 86.4102C46.1698 86.1626 46.6443 85.9877 46.9848 85.8515C47.2615 85.7409 47.8259 85.6245 48.0309 85.3939C48.2179 85.1835 48.5039 85.2431 48.756 85.2334C48.9487 85.226 49.2086 85.0523 49.3801 84.96C49.9525 84.6518 50.593 84.4658 51.1573 84.1398C51.5033 83.9398 52.0254 83.5773 52.4233 83.5276C52.7476 83.487 52.8572 83.4809 53.1425 83.3076C53.598 83.0311 54.4078 82.9543 54.9315 82.8738C56.3262 82.6592 57.6939 82.1836 59.098 81.9406C61.7085 81.4888 64.1737 80.419 66.8604 80.419" stroke="#FF8D07" stroke-width="2" stroke-linecap="round"/>
<path d="M47.175 86.9452C47.175 88.0075 47.0693 87.8974 46.3191 88.2528C45.8421 88.4787 45.5849 88.6569 45.0353 88.6569C44.4277 88.6569 43.0728 89.0956 43.8347 89.8575C43.9139 89.9368 44.148 89.9111 44.1735 90.0002C44.2199 90.1625 44.1819 90.2166 44.3102 90.3449C44.5335 90.5682 44.6347 90.86 44.8451 91.0938C45.2909 91.5891 46.0586 91.6059 46.5331 92.0805" stroke="#FF8D07" stroke-width="2" stroke-linecap="round"/>
<path d="M44.8214 89.5128C45.0046 89.5357 45.112 89.8202 45.3563 89.8338C45.5817 89.8463 45.7302 89.899 45.9447 89.9467C46.5702 90.0857 47.1893 90.3687 47.8407 90.3687C48.4736 90.3687 49.1564 90.3825 49.7486 90.1547C50.2434 89.9644 50.7947 90.0834 51.3118 89.9943C52.0438 89.868 52.8281 89.9408 53.5704 89.9408C54.3966 89.9408 55.2227 89.9408 56.0489 89.9408C56.7245 89.9408 57.3275 90.2617 57.9806 90.2617C59.9534 90.2617 61.9048 90.3687 63.8767 90.3687C65.8523 90.3687 67.8421 90.4757 69.7965 90.4757C70.813 90.4757 71.8124 90.5912 72.8397 90.5827C73.7202 90.5754 74.7617 90.2944 75.6332 90.4995C75.9022 90.5627 76.2269 90.6897 76.4891 90.6897C77.9954 90.6897 79.518 90.7966 81.036 90.7966C81.4871 90.7966 81.962 90.3687 82.4803 90.3687C83.2008 90.3687 82.6662 89.7943 83.2292 89.5128" stroke="#753F00" stroke-width="2" stroke-linecap="round"/>
<path d="M146.275 107.673C144.172 107.924 141.808 108.516 139.73 107.77C139.431 107.663 139.092 107.597 138.912 107.3C138.657 106.881 140.323 107.208 140.459 107.232" stroke="white" stroke-width="2" stroke-linecap="round"/>
<path d="M138.608 87.2278C137.684 88.6412 136.74 90.0838 135.984 91.5949C135.387 92.7901 134.524 93.8987 133.938 95.0709" stroke="white" stroke-width="2" stroke-linecap="round"/>
<path d="M133.674 86.5229C133.349 88.7597 131.345 90.1152 130.08 91.8299C129.726 92.3105 129.426 92.8133 129.096 93.3084C128.903 93.5973 128.854 93.9732 128.65 94.2777" stroke="white" stroke-width="2" stroke-linecap="round"/>
<path d="M133.585 94.5421C133.538 94.8044 133.29 95.2065 133.135 95.4282C132.864 95.8156 132.66 96.3002 132.352 96.6522C131.905 97.1628 131.606 97.5813 130.942 97.8027" stroke="white" stroke-width="2" stroke-linecap="round"/>
<path d="M140.195 88.021C140.16 88.6042 139.701 89.2005 139.402 89.6757C139.226 89.9543 139.228 90.2582 139.01 90.5276C138.8 90.7869 138.62 91.1601 138.471 91.4578C138.169 92.0619 137.702 92.6282 137.473 93.2594C137.351 93.5928 137.214 94.2777 136.846 94.2777" stroke="#FF0707" stroke-width="2" stroke-linecap="round"/>
<path d="M132.087 94.9827C132.115 94.7062 132.174 94.3093 132.361 94.1064C132.607 93.8402 132.909 93.607 133.057 93.2741C133.164 93.0323 133.515 92.7026 133.693 92.4957C133.955 92.1918 134.133 91.6239 134.29 91.2522C134.407 90.9759 134.55 90.6974 134.692 90.4346C134.926 89.9996 135.302 89.4608 135.436 88.9903C135.504 88.7523 135.699 88.6302 135.769 88.393C135.826 88.2007 135.789 87.9573 135.789 87.7566" stroke="#FF0707" stroke-width="2" stroke-linecap="round"/>
<path d="M132.175 91.8103C132.452 91.7615 132.615 91.2196 132.743 90.978C132.898 90.6852 133.135 90.3779 133.331 90.1261C133.887 89.4111 134.995 88.7304 134.995 87.7566" stroke="#FF0707" stroke-width="2" stroke-linecap="round"/>
<path d="M137.727 90.7528C132.722 91.486 127.634 92.2142 122.57 91.6634C122.002 91.6016 121.038 91.5479 120.484 91.2326C120.373 91.1693 120.719 91.1032 120.847 91.1053C122.591 91.1339 137.993 92.3034 137.903 92.8678C137.867 93.0999 137.484 93.034 137.35 93.044C134.445 93.2615 131.486 93.1768 128.582 92.9902C128.085 92.9582 127.589 92.9125 127.094 92.858C126.877 92.8341 126.661 92.797 126.447 92.7552C126.377 92.7414 126.252 92.7625 126.242 92.6915C126.207 92.4586 126.711 92.6342 126.947 92.6426C127.95 92.6782 128.856 92.7904 129.865 92.9265C132.155 93.2357 134.429 93.63 136.729 93.8714C138.043 94.0094 138.208 93.9932 139.362 94.0917C139.591 94.1112 140.263 94.1218 140.043 94.1847C139.68 94.2883 139.289 94.2221 138.912 94.2239C137.784 94.2291 137.076 94.2194 135.906 94.1504C133.817 94.0272 131.727 93.7946 129.674 93.3867C129.511 93.3545 129.348 93.3243 129.189 93.279C129.129 93.2621 129.303 93.2193 129.365 93.2203C131.504 93.2516 133.646 93.485 135.779 93.6315C136.281 93.666 137.524 93.6168 138.119 93.798C138.656 93.9614 137.024 94.0497 136.469 94.1358C134.884 94.3817 133.296 94.6156 131.705 94.8261C131.552 94.8463 129.652 94.9827 130.942 94.9827C131.714 94.9827 132.486 94.9784 133.257 94.9876C133.715 94.9931 135.056 94.9711 134.623 95.1198C134.154 95.281 133.559 95.2818 133.076 95.3352C132.97 95.347 131.482 95.6376 131.373 95.4919C131.19 95.2483 131.964 95.3456 132.264 95.2912C134.215 94.9364 136.169 94.5902 138.129 94.2826C138.538 94.2185 139.716 93.9254 139.362 94.1407C139.133 94.2806 138.792 94.2844 138.54 94.3854C138.525 94.3915 138.183 94.5324 138.187 94.5617C138.198 94.6329 138.332 94.564 138.403 94.5519C138.973 94.4544 139.538 94.3348 140.107 94.2288C141.549 93.9597 142.996 93.7111 144.439 93.4455C145.806 93.194 144.054 93.3285 143.969 93.3329C140.317 93.5221 136.618 94.0557 132.959 93.7098C132.561 93.6722 132.132 93.6091 131.745 93.4944C131.543 93.4346 131.791 93.3998 131.852 93.3916C134.219 93.076 136.714 93.3418 139.088 93.465C140.327 93.5293 138.457 93.576 138.315 93.5776C137.149 93.5911 135.982 93.6151 134.819 93.7C134.429 93.7285 133.218 93.6902 132.831 93.9938C132.715 94.0852 133.125 94.0293 133.272 94.0476C134.9 94.2511 136.52 94.5521 138.109 94.9583C138.498 95.0575 139.541 95.2207 139.901 95.5506C140.035 95.6731 139.712 95.6779 139.695 95.6779C139.255 95.6779 138.023 95.673 137.698 95.3156C137.61 95.2188 137.954 95.2544 138.085 95.2471C138.801 95.2073 139.52 95.1983 140.234 95.1149C142.644 94.8332 135.415 94.4048 132.988 94.4148C130.065 94.4269 121.322 95.1191 124.225 94.7673C127.192 94.4077 130.189 94.1354 133.174 94.4589C133.784 94.5249 135.575 94.9545 134.976 94.8261C134.581 94.7415 133.836 94.3352 133.585 94.2288C131.005 93.1339 128.383 92.1241 125.723 91.2375C125.169 91.0527 123.455 90.7528 124.039 90.7528C126.605 90.7528 129.23 91.015 131.784 91.1591C134.851 91.3323 137.924 91.4733 140.988 91.7026C141.6 91.7484 141.796 91.8869 141.213 91.7124C138.871 91.0111 136.556 90.1188 134.266 89.2645C134.023 89.1737 133.277 88.9903 133.536 88.9903C134.375 88.9903 135.768 89.5968 136.464 89.803C138.789 90.4913 141.104 91.219 143.45 91.8299C144.22 92.0301 145.657 92.5538 146.535 92.4076C146.978 92.3336 145.7 92.0684 145.267 91.9474C142.326 91.1253 139.336 90.4697 136.337 89.9009C134.716 89.5936 133.087 89.3205 131.451 89.1127C131.041 89.0606 129.804 88.9903 130.217 88.9903C130.435 88.9903 130.842 89.0928 131 89.1274C133.39 89.6498 135.743 90.3293 138.119 90.9095C139.479 91.2415 140.893 91.6301 142.3 91.7222C142.562 91.7393 142.542 91.7104 142.271 91.6438C138.055 90.6085 133.645 90.4886 129.336 90.1849C128.767 90.1448 127.896 90.1498 127.299 89.9793C127.03 89.9024 127.852 89.8872 128.132 89.8716C131.331 89.6921 134.577 89.867 137.762 89.4848C137.823 89.4775 137.912 89.5036 137.943 89.4505C138.029 89.3029 137.603 89.4091 137.434 89.3918C135.809 89.2257 134.192 88.9909 132.567 88.8239C131.759 88.7407 130.951 88.6745 130.139 88.6427C129.69 88.6251 131.037 88.6429 131.485 88.6574C134.723 88.7618 137.96 89.0121 141.184 89.3232C142.701 89.4696 138.157 88.9605 136.64 88.8141C134.374 88.5952 132.104 88.3829 129.83 88.2559C129.826 88.2557 128.56 88.1925 128.562 88.1923C129.026 88.1435 129.539 88.2013 129.992 88.2462C132.046 88.4494 134.089 88.7702 136.131 89.0686C136.564 89.1319 137.076 89.1681 137.507 89.2939C137.864 89.3981 136.765 89.2316 136.396 89.1861C133.993 88.8902 131.583 88.6378 129.16 88.6378C126.023 88.6378 135.433 88.6378 138.569 88.6378C139.265 88.6378 139.96 88.6378 140.655 88.6378C141.046 88.6378 140.641 88.6429 140.528 88.6378C137.117 88.4854 133.711 87.9011 130.34 87.3894C130.22 87.3713 130.1 87.3588 129.982 87.3355C129.809 87.3015 130.335 87.3553 130.511 87.3747C132.272 87.569 134.018 87.8792 135.759 88.207C136.674 88.3793 137.6 88.533 138.511 88.7259C139.34 88.9016 136.818 88.6052 135.975 88.5203C133.512 88.2725 131.05 88.046 128.577 87.9279C127.34 87.8689 125.951 88 124.714 87.8006C123.59 87.6192 126.993 87.6933 128.132 87.7272C132.513 87.8576 136.871 88.1242 141.238 88.4909C142.353 88.5846 143.513 88.7259 144.635 88.7259C144.647 88.7259 144.612 88.7272 144.601 88.7259C143.959 88.6546 143.269 88.3543 142.672 88.1678C138.79 86.9548 134.958 86.2492 130.907 85.9598C130.439 85.9263 129.959 85.9086 129.493 85.8374C129.447 85.8305 129.584 85.8169 129.63 85.8179C132.742 85.8834 135.855 86.1449 138.961 86.3466" stroke="white" stroke-width="2" stroke-linecap="round"/>
<path d="M129.003 94.454C129.024 94.1102 129.248 93.605 129.375 93.2888C129.634 92.6465 130.011 92.0936 130.256 91.4578C130.435 90.9939 130.643 90.4962 130.893 90.0674C131.069 89.766 131.081 89.4724 131.226 89.1666C131.345 88.9142 131.488 88.585 131.735 88.4616" stroke="#FF0000" stroke-width="2" stroke-linecap="round"/>
<path d="M132.528 95.0709C132.645 94.9392 132.873 94.7031 132.88 94.5225C132.896 94.1377 133.297 93.739 133.468 93.3769C134.111 92.0129 134.532 90.5259 135.128 89.1372C135.225 88.9107 135.348 88.9012 135.348 88.6378" stroke="#FF0000" stroke-width="2" stroke-linecap="round"/>
<path d="M136.405 95.7759C136.458 95.4452 136.771 95.1746 136.915 94.875C137.088 94.5128 137.31 94.127 137.419 93.7392C137.658 92.8873 138.064 91.9481 138.452 91.1543C138.69 90.6663 138.947 90.2151 139.118 89.6953C139.228 89.3593 139.299 88.9141 139.534 88.6329C139.59 88.5653 139.723 88.2016 139.754 88.1091" stroke="#FF0000" stroke-width="2" stroke-linecap="round"/>
<path d="M141.063 92.5238C141.063 91.7487 141.793 90.9712 142.159 90.3203C142.566 89.5966 142.992 88.866 143.355 88.1389" stroke="#FF0000" stroke-width="2" stroke-linecap="round"/>
<path d="M124.47 131.226C124.859 131.226 125.177 131.2 125.547 131.126C125.999 131.035 126.473 130.92 126.905 130.757C127.198 130.646 127.496 130.606 127.79 130.505C128.139 130.386 128.547 130.309 128.91 130.249C130.105 130.052 131.228 129.535 132.4 129.242C132.77 129.15 133.136 129.044 133.502 128.941C134.023 128.794 134.537 128.468 135.076 128.411C135.237 128.394 135.395 128.264 135.555 128.22C135.638 128.198 135.722 128.17 135.798 128.131C136.101 127.98 136.409 127.714 136.736 127.632" stroke="#DFDFDF" stroke-width="2" stroke-linecap="round"/>
<path d="M123.884 131.46C124.252 131.46 124.503 131.615 124.841 131.695C125.035 131.74 125.206 131.825 125.408 131.842C126.051 131.897 126.683 131.951 127.33 131.977C127.715 131.992 128.112 131.991 128.494 132.048C128.854 132.102 129.232 132.265 129.579 132.378C129.913 132.487 130.247 132.736 130.525 132.945" stroke="#DFDFDF" stroke-width="2" stroke-linecap="round"/>
<path d="M126.072 132.046C126.505 132.062 126.889 132.418 127.304 132.474C127.723 132.53 128.07 132.633 128.463 132.788C128.974 132.991 129.652 132.918 130.115 133.238C130.207 133.302 130.374 133.356 130.447 133.437C130.542 133.544 130.63 133.622 130.759 133.687" stroke="#DFDFDF" stroke-width="2" stroke-linecap="round"/>
<path d="M121.462 130.249C122.054 130.249 122.646 130.249 123.237 130.249C123.479 130.249 123.721 130.249 123.962 130.249C124.402 130.249 124.844 130.098 125.269 130C126.064 129.816 126.847 129.616 127.647 129.368C128.096 129.23 128.512 129.006 128.958 128.863C129.099 128.817 129.287 128.73 129.431 128.726C129.6 128.721 129.77 128.735 129.939 128.726C130.298 128.707 130.694 128.529 131.035 128.431C131.475 128.304 131.887 128.092 132.322 127.945C132.663 127.829 132.995 127.677 133.34 127.574C133.74 127.453 134.122 127.263 134.509 127.105C135.006 126.901 135.517 126.707 136.024 126.53C136.604 126.327 137.165 126.075 137.738 125.84C137.791 125.818 138.338 125.638 138.376 125.562" stroke="#C8C8C8" stroke-width="2" stroke-linecap="round"/>
<path d="M122.048 132.32C122.17 132.428 122.388 132.449 122.537 132.515C122.682 132.579 122.817 132.646 122.962 132.71C123.378 132.895 123.89 132.958 124.323 133.118C124.873 133.322 125.411 133.542 125.991 133.687C126.371 133.782 126.715 134.003 127.105 134.077C127.472 134.147 127.8 134.444 128.177 134.507C128.295 134.527 128.376 134.646 128.496 134.661C128.643 134.68 128.751 134.7 128.893 134.75C129.124 134.833 129.373 134.902 129.596 134.985C129.728 135.033 129.83 135.118 129.969 135.163C130.078 135.198 130.191 135.257 130.293 135.308C130.55 135.436 130.861 135.513 131.106 135.662C131.406 135.844 131.713 135.983 132.018 136.156C132.216 136.269 132.428 136.349 132.617 136.478C132.761 136.576 132.974 136.624 133.103 136.734C133.44 137.02 133.849 137.233 134.119 137.593" stroke="#9B9B9B" stroke-width="2" stroke-linecap="round"/>
<path d="M131.54 132.554C131.886 132.554 132.447 132.846 132.632 133.142C132.776 133.373 133.049 133.545 133.251 133.726C133.482 133.934 133.69 134.151 133.96 134.31C134.203 134.452 134.485 134.682 134.646 134.917C134.718 135.023 134.845 135.093 134.935 135.189C135.015 135.275 135.066 135.372 135.165 135.445C135.316 135.557 135.442 135.731 135.564 135.874C135.62 135.94 135.64 135.994 135.701 136.054C135.763 136.117 135.871 136.23 135.915 136.304C136.047 136.523 136.163 136.786 136.345 136.968" stroke="white" stroke-width="2" stroke-linecap="round"/>
<path d="M132.673 132.202C134.692 132.202 136.103 130.523 137.526 129.36C137.742 129.182 137.937 129.028 138.155 128.828C138.34 128.658 138.561 128.526 138.711 128.335C138.727 128.315 138.9 128.105 138.906 128.103C138.987 128.08 139.154 127.956 139.188 127.875C139.232 127.77 139.491 127.547 139.587 127.515" stroke="white" stroke-width="2" stroke-linecap="round"/>
<path d="M111.984 128.293C112.499 128.293 113.01 128.344 113.524 128.39C114.232 128.454 114.94 128.396 115.649 128.396" stroke="#C8C8C8" stroke-width="2" stroke-linecap="round"/>
<path d="M113.957 128.601C113.332 128.601 112.698 128.523 112.09 128.372C111.854 128.312 111.66 128.167 111.445 128.063C111.356 128.019 110.77 127.842 110.806 127.718C110.825 127.651 111.216 127.728 111.266 127.742C111.596 127.834 111.977 127.806 112.317 127.806C112.71 127.806 113.08 127.727 113.47 127.702C113.942 127.673 114.407 127.55 114.88 127.55" stroke="#C8C8C8" stroke-linecap="round"/>
<path d="M107.908 126.166C108.272 126.226 108.634 126.355 109.004 126.371C109.101 126.375 109.187 126.402 109.278 126.435C109.364 126.466 109.456 126.462 109.54 126.496C109.737 126.576 109.944 126.664 110.158 126.678C110.223 126.683 110.4 126.759 110.457 126.795C110.63 126.905 110.825 126.942 111.011 127.023C111.139 127.079 111.278 127.08 111.408 127.127C111.581 127.189 111.763 127.234 111.938 127.288C112.051 127.323 112.203 127.347 112.322 127.365C112.493 127.39 112.659 127.415 112.824 127.459C113.177 127.553 113.51 127.58 113.869 127.628C114.114 127.661 114.421 127.693 114.648 127.792C114.717 127.822 115.108 127.851 115.085 127.806" stroke="#DFDFDF" stroke-linecap="round"/>
<path d="M113.701 127.447C113.532 127.38 113.281 127.392 113.1 127.376C112.782 127.348 112.437 127.339 112.129 127.255C111.98 127.214 111.822 127.199 111.676 127.154C111.519 127.106 111.355 127.118 111.2 127.074C110.871 126.982 110.529 126.909 110.195 126.832C109.933 126.772 109.718 126.678 109.446 126.678" stroke="#DFDFDF" stroke-linecap="round"/>
<path d="M111.471 128.037C111.739 128.037 111.992 128.139 112.251 128.139C112.61 128.139 112.965 128.175 113.325 128.159C113.639 128.146 113.951 128.114 114.265 128.114C114.747 128.114 115.218 128.037 115.7 128.037" stroke="#C8C8C8" stroke-linecap="round"/>
<path d="M114.034 127.191C114.074 127.196 114.136 127.282 114.168 127.313C114.25 127.395 114.318 127.396 114.43 127.396C114.556 127.396 114.682 127.447 114.816 127.447C114.99 127.447 115.172 127.49 115.341 127.524" stroke="#DFDFDF" stroke-linecap="round"/>
<path d="M113.265 128.242C113.436 128.242 113.607 128.242 113.778 128.242C113.913 128.242 114.114 128.275 114.245 128.236C114.435 128.18 114.635 128.138 114.829 128.094C115.051 128.043 115.28 127.94 115.507 127.91C115.559 127.903 115.621 127.906 115.675 127.909C115.711 127.911 115.729 127.974 115.766 127.984C115.838 128.005 115.85 128.114 115.969 128.114C116.242 128.114 116.504 128.191 116.777 128.191" stroke="#C8C8C8" stroke-linecap="round"/>
<path d="M113.419 128.011C113.489 128.054 113.568 128.114 113.65 128.114" stroke="#C8C8C8" stroke-linecap="round"/>
<path d="M113.24 128.242C113.697 128.194 114.164 128.216 114.624 128.216C114.722 128.216 114.829 128.215 114.917 128.165C114.959 128.141 114.725 128.114 114.706 128.114C114.53 128.112 114.347 128.118 114.174 128.151C114.125 128.16 113.729 128.267 113.729 128.128C113.729 128.004 114.066 127.979 114.148 127.96C114.466 127.887 114.792 127.947 115.108 127.846C115.266 127.796 115.504 127.821 115.662 127.856C115.824 127.892 115.99 127.904 116.15 127.933C116.264 127.954 116.369 127.962 116.484 127.991C116.541 128.006 116.59 128.006 116.649 128.013C116.727 128.021 116.782 128.094 116.864 128.112C117.228 128.193 117.629 128.344 118.007 128.344" stroke="#C8C8C8" stroke-linecap="round"/>
<path d="M110.24 129.421C110.609 129.436 110.969 129.622 111.327 129.702C111.516 129.744 111.701 129.821 111.892 129.855C111.951 129.866 111.946 129.863 111.878 129.851C111.576 129.799 111.306 129.637 111.035 129.504C110.996 129.485 110.647 129.359 110.867 129.356C111.035 129.353 111.192 129.411 111.34 129.485C111.442 129.536 111.551 129.63 111.665 129.652C111.848 129.687 112.013 129.839 112.163 129.914C112.301 129.983 112.191 129.896 112.112 129.868C111.934 129.807 111.784 129.696 111.6 129.65C111.438 129.61 111.269 129.522 111.112 129.461C111.019 129.425 110.879 129.402 110.796 129.344C110.607 129.213 111.253 129.435 111.459 129.538C111.635 129.626 111.818 129.669 111.996 129.743C112.039 129.761 112.185 129.808 112.214 129.844C112.226 129.859 112.328 129.927 112.342 129.934" stroke="#3BB488" stroke-linecap="round"/>
<path d="M112.679 125.745C112.915 125.839 113.239 125.99 113.504 125.99C113.606 125.99 113.777 126.033 113.87 126.079C113.987 126.138 114.091 126.195 114.22 126.227C114.26 126.237 114.539 126.324 114.43 126.297C114.176 126.236 113.936 126.235 113.677 126.235C113.587 126.235 113.835 126.235 113.87 126.235C113.993 126.235 114.098 126.276 114.212 126.313C114.325 126.349 114.448 126.414 114.554 126.463C114.605 126.485 114.824 126.55 114.656 126.55C114.378 126.55 114.173 126.558 113.924 126.453C113.843 126.418 113.752 126.464 113.679 126.391C113.625 126.337 113.559 126.287 113.5 126.237C113.396 126.148 113.309 126.064 113.177 126.017C113.107 125.992 112.991 125.948 112.959 125.885" stroke="white" stroke-linecap="round"/>
<path d="M114.732 126.709C114.968 126.709 115.259 126.676 115.47 126.789C115.52 126.817 115.648 126.824 115.706 126.826C115.815 126.829 115.91 126.869 116.019 126.873C116.194 126.88 116.402 126.96 116.565 127.014" stroke="white" stroke-linecap="round"/>
<path d="M102.509 122.007C102.73 122.189 103.023 122.231 103.272 122.347C103.432 122.422 103.595 122.492 103.755 122.572C103.922 122.655 104.058 122.764 104.213 122.864C104.439 123.01 104.722 123.097 104.935 123.264C105.157 123.438 105.444 123.512 105.682 123.665C105.794 123.737 105.907 123.826 106.022 123.888C106.173 123.97 106.314 124.082 106.47 124.157C106.613 124.225 106.757 124.342 106.904 124.384C106.962 124.401 107.002 124.458 107.07 124.476C107.203 124.509 107.337 124.595 107.458 124.658C107.982 124.935 108.539 125.185 109.101 125.379C109.366 125.471 109.619 125.583 109.891 125.661C110.157 125.738 110.462 125.766 110.737 125.793C110.976 125.817 111.216 125.861 111.454 125.891C111.922 125.95 112.396 125.967 112.863 126.04C113.085 126.074 113.307 126.089 113.532 126.099C113.706 126.106 113.874 126.144 114.05 126.144" stroke="white" stroke-linecap="round"/>
<path d="M125.771 226.574C125.786 226.434 126.034 226.214 126.13 226.13C126.414 225.879 126.647 225.59 126.95 225.365C127.123 225.236 127.232 225.019 127.415 224.9C127.564 224.803 127.804 224.703 127.901 224.557" stroke="white" stroke-linecap="round"/>
<path d="M125.238 227.411C125.28 227.028 125.856 226.997 125.957 226.669C126.061 226.329 126.411 226.025 126.713 225.821C127.075 225.577 127.394 225.233 127.722 224.942C128.201 224.516 128.64 223.984 129.214 223.684C129.656 223.454 130.096 223.241 130.556 223.052C130.907 222.908 131.336 222.889 131.704 222.843C131.922 222.816 132.137 222.698 132.353 222.655" stroke="#DFDFDF" stroke-linecap="round"/>
<path d="M125.086 226.612C125.137 226.287 125.647 226.05 125.883 225.87C126.006 225.775 126.099 225.658 126.21 225.551C126.359 225.407 126.578 225.289 126.747 225.166C127.226 224.817 127.688 224.45 128.168 224.103C128.452 223.896 128.717 223.66 129.022 223.483C129.362 223.285 129.707 223.129 130.06 222.959C130.847 222.579 131.7 222.325 132.552 222.114C133.238 221.943 133.903 221.711 134.583 221.534C134.902 221.452 135.297 221.513 135.625 221.513C135.923 221.513 136.221 221.513 136.519 221.513C136.924 221.513 137.388 221.389 137.786 221.522C138.033 221.604 138.26 221.743 138.519 221.796C138.695 221.833 138.96 221.877 139.107 221.991C139.173 222.042 139.309 222.234 139.299 222.152C139.285 222.041 139.143 221.865 139.067 221.78C138.908 221.601 138.63 221.694 138.403 221.636C138.226 221.59 138.067 221.589 137.885 221.589C137.615 221.589 137.36 221.513 137.092 221.513C136.512 221.513 135.939 221.475 135.359 221.475C134.779 221.475 134.234 221.508 133.668 221.625C133.178 221.727 132.739 221.963 132.285 222.173C130.791 222.864 129.068 223.247 127.897 224.477C127.515 224.878 127.086 225.225 126.667 225.584C126.505 225.723 126.38 225.875 126.198 225.994C126.093 226.063 125.992 226.124 125.904 226.212C125.722 226.394 125.572 226.617 125.407 226.815C125.174 227.095 124.906 227.389 124.743 227.715" stroke="#DFDFDF" stroke-linecap="round"/>
<path d="M124.766 227.703C124.826 227.399 124.889 227.107 124.889 226.797C124.889 226.739 124.867 226.653 124.92 226.626" stroke="#DFDFDF" stroke-linecap="round"/>
<path d="M124.981 226.565C124.857 226.708 124.794 226.896 124.703 227.06C124.582 227.277 124.48 227.502 124.39 227.733C124.253 228.085 124.033 228.373 123.859 228.702C123.774 228.863 123.722 229.012 123.597 229.148C123.469 229.288 123.358 229.491 123.292 229.669C123.158 230.025 123.081 230.399 122.921 230.747C122.708 231.211 122.542 231.71 122.49 232.223" stroke="#DFDFDF" stroke-linecap="round"/>
<path d="M124.028 229.517C123.245 230.892 122.699 232.382 122.205 233.882C122.12 234.14 122.006 234.396 121.892 234.643C121.851 234.733 121.805 234.729 121.848 234.614C122.148 233.817 122.461 232.996 122.682 232.178C122.71 232.072 122.774 231.981 122.791 231.871C122.802 231.801 122.856 231.688 122.856 231.625C122.856 231.577 122.756 231.77 122.753 231.775C122.652 231.976 122.533 232.168 122.432 232.37C122.273 232.689 122.105 233.004 121.952 233.326C121.892 233.453 121.803 233.547 121.781 233.687C121.749 233.896 121.582 234.145 121.5 234.341C121.389 234.604 121.28 234.916 121.12 235.151C120.907 235.464 120.772 235.874 120.601 236.217C120.438 236.543 120.242 236.887 120.215 237.259C120.199 237.478 120.038 237.669 120.03 237.888C120.028 237.962 120.001 238.157 119.938 238.188" stroke="#DFDFDF" stroke-linecap="round"/>
<path d="M119.969 237.727C119.822 238.021 119.607 238.313 119.504 238.622C119.393 238.956 119.163 239.229 119.062 239.572C118.829 240.359 118.708 241.178 118.448 241.957C118.231 242.609 117.834 243.286 117.816 243.986C117.812 244.145 117.813 244.294 117.792 244.451C117.772 244.611 117.663 244.767 117.663 244.922" stroke="#DFDFDF" stroke-linecap="round"/>
<path d="M117.57 244.953C117.57 245.36 117.563 245.772 117.509 246.176C117.459 246.55 117.487 246.925 117.478 247.3C117.469 247.671 117.283 248.097 117.126 248.428C117.017 248.659 116.926 248.9 116.82 249.134C116.776 249.232 116.771 249.383 116.771 249.491C116.771 249.713 116.728 249.918 116.696 250.138C116.669 250.319 116.58 250.466 116.54 250.642C116.499 250.823 116.409 250.986 116.349 251.161C116.348 251.164 116.31 251.306 116.31 251.257" stroke="#DFDFDF" stroke-linecap="round"/>
<path d="M116.125 252.302C116.131 251.808 116.103 251.257 116.248 250.779C116.34 250.475 116.451 250.176 116.544 249.872C116.586 249.734 116.656 249.616 116.721 249.489C116.863 249.21 116.931 248.877 117 248.575C117.088 248.188 117.1 247.784 117.201 247.401C117.336 246.893 117.376 246.376 117.577 245.883C117.705 245.571 117.861 245.259 117.909 244.922" stroke="#DFDFDF" stroke-linecap="round"/>
<path d="M112.497 257.499C112.691 257.499 112.877 257.555 113.067 257.561C113.37 257.569 113.657 257.539 113.956 257.498C114.353 257.442 114.74 257.302 115.139 257.253C115.409 257.221 115.668 257.156 115.941 257.137C116.145 257.123 116.351 257.142 116.556 257.123C117.11 257.074 117.646 256.984 118.199 257.036C118.318 257.048 118.427 257.083 118.542 257.113C118.731 257.162 118.955 257.141 119.149 257.161C119.347 257.182 119.555 257.253 119.754 257.253" stroke="#3BB488" stroke-linecap="round"/>
<path d="M112.251 257.284C112.782 257.284 113.307 257.222 113.843 257.222C114.956 257.222 116.014 256.792 117.126 256.792C117.805 256.792 118.455 256.886 119.127 256.946C119.597 256.987 120.072 257.035 120.539 257.098C120.972 257.156 121.41 257.14 121.845 257.168C122.115 257.185 122.384 257.239 122.654 257.252C123.102 257.272 123.596 257.427 124.021 257.564C124.484 257.713 124.949 257.874 125.415 258.008C125.913 258.152 126.436 258.226 126.944 258.328C127.401 258.419 127.841 258.494 128.307 258.512C128.715 258.529 129.124 258.514 129.532 258.514" stroke="#3BB488" stroke-linecap="round"/>
<path d="M123.136 258.069C123.681 258.069 124.22 258.112 124.762 258.125C125.055 258.132 125.417 258.151 125.709 258.194C126.446 258.303 127.127 258.464 127.882 258.464C128.045 258.464 128.044 258.468 127.882 258.464C127.619 258.457 127.334 258.407 127.078 258.351C126.685 258.266 126.318 258.11 125.929 258.012C125.662 257.944 125.422 257.918 125.17 257.799C124.825 257.636 124.407 257.643 124.065 257.491C123.972 257.45 123.651 257.447 123.905 257.447C124.625 257.447 125.407 257.405 126.114 257.532C126.348 257.573 126.598 257.673 126.833 257.673C127.131 257.673 127.415 257.73 127.712 257.73C127.931 257.73 128.27 257.666 128.472 257.758C128.768 257.892 129.33 257.956 129.658 257.956C130.114 257.956 130.601 258.183 131.046 258.295" stroke="#3BB488" stroke-linecap="round"/>
<path d="M135.296 219.672C135.402 219.637 135.479 219.497 135.595 219.481C135.62 219.478 135.631 219.493 135.654 219.493C135.698 219.493 135.768 219.462 135.774 219.41C135.778 219.37 135.918 219.371 135.952 219.362C135.996 219.351 136.044 219.344 136.091 219.351C136.149 219.36 136.195 219.398 136.256 219.398C136.291 219.398 136.337 219.415 136.368 219.434C136.393 219.449 136.421 219.453 136.447 219.467C136.485 219.488 136.53 219.507 136.572 219.517C136.793 219.572 136.992 219.73 137.193 219.83C137.375 219.921 137.528 220.03 137.695 220.147C137.732 220.173 137.777 220.184 137.814 220.212C137.857 220.244 137.897 220.28 137.94 220.311C138.017 220.368 138.094 220.425 138.172 220.481C138.196 220.499 138.234 220.547 138.262 220.555C138.347 220.579 138.43 220.621 138.515 220.648C138.547 220.658 138.581 220.686 138.613 220.687C138.644 220.687 138.68 220.693 138.703 220.716C138.732 220.746 138.771 220.77 138.804 220.801C138.833 220.828 138.851 220.871 138.888 220.889" stroke="#9B9B9B" stroke-linecap="round"/>
<path d="M138.1 219.291C138.165 219.35 138.221 219.408 138.291 219.463C138.366 219.522 138.444 219.586 138.512 219.654C138.611 219.753 138.725 219.835 138.833 219.922C138.895 219.972 138.953 220.027 139.016 220.075C139.074 220.12 139.152 220.183 139.197 220.24C139.262 220.321 139.357 220.371 139.425 220.451C139.486 220.524 139.57 220.573 139.639 220.639C139.794 220.785 139.959 220.937 140.093 221.104" stroke="white" stroke-linecap="round"/>
<path d="M128.46 219.72C128.552 219.628 128.689 219.598 128.805 219.547C129 219.463 129.208 219.397 129.408 219.326C129.548 219.276 129.7 219.223 129.844 219.192C129.912 219.178 129.98 219.137 130.044 219.11C130.175 219.055 130.306 218.996 130.442 218.953C130.654 218.884 130.879 218.855 131.095 218.804C131.219 218.775 131.337 218.767 131.463 218.752C131.576 218.74 131.685 218.705 131.798 218.687C131.886 218.674 131.976 218.666 132.064 218.652C132.219 218.628 132.372 218.633 132.526 218.616C132.631 218.604 132.732 218.592 132.839 218.605C133.086 218.633 133.298 218.679 133.55 218.653C133.705 218.637 133.853 218.622 134.008 218.622" stroke="white" stroke-linecap="round"/>
<path d="M131.968 220.042C131.981 219.908 132.26 219.813 132.364 219.753C132.489 219.681 132.608 219.592 132.729 219.517C132.877 219.425 133.04 219.417 133.2 219.356C133.305 219.316 133.43 219.301 133.54 219.288C133.625 219.278 133.699 219.243 133.784 219.243C134.009 219.243 134.256 219.213 134.476 219.267C134.584 219.293 134.719 219.299 134.831 219.303C134.873 219.304 134.915 219.311 134.956 219.315C134.982 219.318 134.995 219.338 135.022 219.338C135.176 219.342 135.331 219.338 135.486 219.338C135.626 219.338 135.765 219.338 135.905 219.338C135.938 219.338 135.965 219.353 135.976 219.386" stroke="#9B9B9B" stroke-linecap="round"/>
<path d="M127.207 221.939C127.142 221.988 127.006 221.995 126.926 221.999C126.892 222.001 126.882 222.04 126.855 222.046C126.83 222.052 126.781 222.099 126.76 222.118C126.736 222.141 126.704 222.175 126.675 222.191C126.568 222.249 126.486 222.364 126.384 222.434C126.259 222.52 126.148 222.63 126.037 222.733C125.845 222.911 125.677 223.121 125.474 223.288C125.417 223.334 125.363 223.392 125.316 223.449C125.285 223.487 125.269 223.544 125.226 223.571C125.159 223.614 125.091 223.723 125.048 223.789" stroke="#9B9B9B" stroke-linecap="round"/>
<path d="M124.045 225.375C123.882 225.5 123.735 225.645 123.573 225.772C123.48 225.845 123.418 225.942 123.336 226.025C123.239 226.124 123.152 226.222 123.079 226.339C123.031 226.415 122.985 226.498 122.923 226.564C122.901 226.588 122.895 226.62 122.873 226.643C122.851 226.666 122.827 226.688 122.805 226.712C122.753 226.77 122.688 226.82 122.644 226.885C122.546 227.029 122.461 227.183 122.356 227.324C122.265 227.447 122.197 227.585 122.112 227.714C122.027 227.845 121.944 227.99 121.88 228.132C121.854 228.19 121.831 228.245 121.796 228.298C121.749 228.371 121.733 228.451 121.689 228.525C121.63 228.624 121.576 228.742 121.576 228.859" stroke="#9B9B9B" stroke-linecap="round"/>
<path d="M121.838 228.943C121.757 228.943 121.699 229.044 121.631 229.079C121.569 229.111 121.515 229.196 121.468 229.246C121.415 229.304 121.386 229.393 121.337 229.456C121.31 229.491 121.287 229.533 121.272 229.575C121.236 229.671 121.175 229.752 121.122 229.84C121.034 229.988 120.971 230.146 120.885 230.294C120.859 230.339 120.84 230.39 120.812 230.432C120.788 230.468 120.754 230.509 120.743 230.551C120.701 230.71 120.594 230.852 120.545 231.011C120.538 231.034 120.515 231.146 120.526 231.084C120.577 230.805 120.758 230.584 120.872 230.333C120.967 230.121 121.025 229.891 121.129 229.683C121.158 229.624 121.203 229.576 121.223 229.513C121.254 229.417 121.327 229.323 121.379 229.236C121.499 229.035 121.642 228.85 121.755 228.645" stroke="#9B9B9B" stroke-linecap="round"/>
<path d="M117.173 239.466C117.173 239.59 117.12 239.727 117.08 239.843C117.039 239.959 116.992 240.077 116.958 240.195C116.934 240.28 116.911 240.359 116.881 240.444C116.84 240.562 116.776 240.671 116.741 240.791C116.646 241.115 116.585 241.448 116.509 241.777C116.469 241.956 116.431 242.136 116.395 242.315C116.371 242.432 116.363 242.559 116.338 242.671C116.295 242.865 116.263 243.064 116.228 243.26C116.198 243.425 116.147 243.591 116.102 243.752C116.056 243.917 115.979 244.07 115.931 244.234C115.861 244.476 115.864 244.726 115.827 244.973C115.812 245.078 115.801 245.182 115.801 245.289" stroke="#9B9B9B" stroke-linecap="round"/>
<path d="M115.801 244.907C115.759 245.161 115.665 245.402 115.622 245.656C115.605 245.753 115.58 245.848 115.562 245.945C115.538 246.069 115.529 246.198 115.491 246.317C115.442 246.466 115.43 246.624 115.383 246.773C115.307 247.016 115.268 247.273 115.216 247.521C115.192 247.637 115.184 247.754 115.163 247.87C115.154 247.92 115.134 247.971 115.133 248.021C115.13 248.124 115.116 248.224 115.109 248.326C115.097 248.507 115.025 248.688 115.025 248.868" stroke="#9B9B9B" stroke-linecap="round"/>
<path d="M115.085 247.472C115.049 247.619 115.012 247.765 114.982 247.913C114.958 248.035 114.916 248.153 114.893 248.275C114.873 248.38 114.833 248.481 114.804 248.584C114.786 248.649 114.786 248.718 114.779 248.784C114.766 248.904 114.746 249.021 114.72 249.138C114.68 249.32 114.665 249.512 114.657 249.697C114.65 249.874 114.635 250.051 114.632 250.229C114.63 250.383 114.624 250.524 114.602 250.677C114.584 250.812 114.568 250.946 114.551 251.08C114.548 251.101 114.551 251.104 114.536 251.111" stroke="#9B9B9B" stroke-linecap="round"/>
<path d="M114.548 250.097C114.539 250.178 114.518 250.266 114.503 250.347C114.492 250.406 114.466 250.464 114.465 250.524C114.464 250.565 114.441 250.59 114.441 250.629C114.441 250.87 114.408 251.127 114.333 251.355C114.313 251.417 114.326 251.488 114.307 251.55C114.289 251.608 114.279 251.655 114.271 251.717C114.262 251.785 114.252 251.852 114.238 251.92C114.213 252.043 114.226 252.177 114.226 252.303C114.226 252.355 114.216 252.4 114.209 252.451C114.197 252.534 114.205 252.619 114.196 252.702C114.185 252.816 114.19 252.931 114.19 253.045C114.19 253.294 114.119 253.537 114.119 253.784" stroke="#9B9B9B" stroke-linecap="round"/>
<path d="M113.987 252.757C113.987 252.881 113.997 253.007 113.969 253.129C113.918 253.346 113.936 253.578 113.921 253.799C113.882 254.37 113.82 254.941 113.82 255.514" stroke="#9B9B9B" stroke-linecap="round"/>
<path d="M113.2 251.97C113.332 251.978 113.225 252.242 113.224 252.307C113.221 252.409 113.185 252.529 113.167 252.63C113.144 252.76 113.141 252.891 113.093 253.017C113.066 253.087 113.047 253.172 113.036 253.247C113.014 253.389 112.98 253.531 112.949 253.674C112.935 253.741 112.945 253.81 112.931 253.877C112.919 253.936 112.896 253.989 112.887 254.049C112.874 254.136 112.846 254.225 112.818 254.309" stroke="white" stroke-linecap="round"/>
<path d="M113.593 242.219C113.557 242.33 113.132 243.224 113.191 243.253" stroke="white" stroke-linecap="round"/>
<path d="M184.309 236.013C184.077 235.863 183.787 235.66 183.517 235.588C183.287 235.527 183.179 235.398 182.995 235.235C182.858 235.113 182.729 234.98 182.592 234.856C182.579 234.844 182.243 234.581 182.36 234.555C182.526 234.518 182.594 234.608 182.728 234.679C183.055 234.853 183.405 234.982 183.744 235.13C183.96 235.225 184.148 235.357 184.362 235.454C184.438 235.489 184.735 235.562 184.72 235.703C184.714 235.751 184.18 235.282 184.128 235.23C183.904 235.006 183.752 234.744 183.493 234.543C183.282 234.379 183.008 234.144 182.754 234.047C182.393 233.908 182.105 233.556 181.838 233.288C181.831 233.281 181.461 232.994 181.659 233.014C181.92 233.04 182.151 233.335 182.313 233.524C182.617 233.882 183.015 234.159 183.367 234.467C183.598 234.669 183.928 234.773 184.138 234.982C184.293 235.138 184.547 235.308 184.739 235.421C184.857 235.491 184.696 235.425 184.653 235.402C184.551 235.348 184.435 235.242 184.362 235.154C184.214 234.975 184.01 234.876 183.847 234.715C183.633 234.505 183.414 234.302 183.202 234.09C182.815 233.703 182.42 233.205 181.948 232.921" stroke="white" stroke-linecap="round"/>
<path d="M142.741 222.786C142.903 222.851 142.992 223.192 143.101 223.326C143.148 223.383 143.118 223.457 143.171 223.516C143.244 223.598 143.285 223.697 143.342 223.788C143.425 223.919 143.415 224.101 143.495 224.227C143.604 224.398 143.68 224.609 143.729 224.802C143.864 225.341 143.986 225.818 143.986 226.384C143.986 226.669 143.901 226.227 143.901 226.143C143.901 225.975 143.935 225.805 143.839 225.68C143.795 225.624 143.833 225.551 143.805 225.492C143.769 225.415 143.708 225.365 143.676 225.287C143.627 225.165 143.526 224.975 143.447 224.874C143.302 224.687 143.245 224.383 143.085 224.204C142.976 224.082 142.991 223.891 142.851 223.815C142.774 223.773 142.772 223.629 142.717 223.559C142.649 223.473 142.569 223.369 142.486 223.299C142.347 223.184 142.312 222.978 142.183 222.848C142.061 222.726 141.93 222.594 141.839 222.443" stroke="white" stroke-linecap="round"/>
<path d="M137.889 224.161C138.182 224.161 138.606 224.343 138.876 224.471C138.988 224.524 139.111 224.537 139.222 224.592C139.295 224.629 139.511 224.689 139.554 224.762C139.614 224.863 139.753 224.908 139.843 224.998C139.896 225.051 139.966 225.076 140.017 225.124C140.065 225.17 140.166 225.185 140.198 225.234C140.277 225.356 140.487 225.361 140.551 225.473C140.579 225.522 140.763 225.69 140.809 225.716C141.015 225.831 141.22 226.051 141.4 226.231C141.505 226.336 141.558 226.514 141.689 226.587C141.765 226.629 141.738 226.673 141.763 226.747C141.794 226.841 141.872 226.839 141.916 226.909C141.988 227.024 142.103 227.338 142.226 227.415C142.276 227.446 142.269 227.474 142.269 227.532C142.269 227.618 142.324 227.566 142.355 227.62C142.419 227.732 142.443 227.818 142.483 227.94" stroke="white" stroke-linecap="round"/>
<path d="M132.435 224.461C132.668 224.438 132.958 224.467 133.186 224.416C133.364 224.376 133.414 224.194 133.616 224.163C133.807 224.134 134.048 224.118 134.239 224.118C134.434 224.118 134.585 224.032 134.787 224.032C135.724 224.032 136.647 223.946 137.588 223.946C137.776 223.946 137.999 223.98 138.165 224.075C138.301 224.152 138.396 224.162 138.552 224.206C138.814 224.281 139.102 224.429 139.306 224.633C139.627 224.954 140.037 225.021 140.358 225.342C140.822 225.805 141.361 226.196 141.796 226.694" stroke="white" stroke-linecap="round"/>
<path d="M88.3461 263.81C88.3461 263.518 88.3275 263.218 88.3687 262.93C88.3842 262.822 88.4545 262.706 88.4963 262.605C88.5519 262.47 88.6074 262.292 88.6251 262.146C88.6694 261.78 88.7476 261.421 88.7872 261.056C88.8101 260.845 88.7968 260.626 88.7968 260.414C88.7968 260.088 88.8243 259.774 88.8826 259.453" stroke="white" stroke-linecap="round"/>
<path d="M88.11 262.823C88.1141 262.58 88.1514 262.339 88.1791 262.098C88.1875 262.025 88.1795 261.921 88.2053 261.852C88.304 261.591 88.4043 261.321 88.4581 261.044C88.5906 260.363 88.7013 259.677 88.8182 258.993C88.8654 258.717 88.9685 258.424 88.9685 258.144" stroke="white" stroke-linecap="round"/>
<path d="M87.6807 258.938C87.6807 259.133 87.6618 259.33 87.633 259.522C87.6114 259.666 87.5932 259.822 87.5567 259.964C87.5015 260.177 87.5519 260.464 87.5519 260.686C87.5519 261.087 87.5519 261.488 87.5519 261.888C87.5519 262.062 87.5519 262.236 87.5519 262.41C87.5519 262.501 87.5833 262.656 87.5471 262.737C87.5095 262.822 87.5305 262.945 87.5305 263.038C87.5305 263.089 87.5226 263.142 87.5471 263.188C87.5719 263.235 87.5948 263.236 87.5948 263.295" stroke="#1F6EB7" stroke-linecap="round"/>
<path d="M88.4104 263.853C88.2161 263.681 88.2817 263.33 88.2817 263.076C88.2817 262.837 88.346 262.6 88.346 262.363C88.346 262.209 88.389 262.063 88.389 261.911C88.389 261.805 88.4319 261.71 88.4319 261.609C88.4319 261.475 88.4464 261.346 88.4534 261.213C88.4596 261.094 88.5144 260.989 88.5177 260.87C88.5257 260.582 88.5468 260.283 88.6143 259.999C88.6585 259.814 88.7223 259.636 88.7753 259.449C88.808 259.333 88.8612 259.234 88.8612 259.115C88.8612 259.006 88.9245 258.964 88.947 258.874" stroke="white" stroke-linecap="round"/>
<path d="M88.7362 252.453C88.7256 252.548 88.5619 252.604 88.5587 252.682C88.5554 252.765 88.5129 252.835 88.4906 252.913C88.4671 252.996 88.4199 253.111 88.3804 253.187C88.3502 253.245 88.3399 253.287 88.3311 253.351C88.321 253.424 88.2744 253.485 88.2693 253.559C88.2624 253.657 88.2065 253.753 88.2038 253.847C88.2009 253.955 88.161 254.051 88.1429 254.156C88.1289 254.237 88.1325 254.324 88.1223 254.406C88.1028 254.561 88.0748 254.705 88.0748 254.864C88.0748 255.031 88.0748 255.198 88.0748 255.365C88.0748 255.491 88.0748 255.618 88.0748 255.744C88.0748 255.775 88.0605 255.857 88.0838 255.88C88.0974 255.893 88.113 255.901 88.1304 255.906C88.1397 255.908 88.1477 255.958 88.1554 255.969" stroke="#3BB488" stroke-linecap="round"/>
<path d="M90.188 251.453C90.148 251.457 90.1114 251.513 90.0831 251.541C90.0538 251.571 90.0219 251.572 89.9872 251.589C89.8998 251.631 89.7227 251.708 89.6843 251.804C89.671 251.837 89.6321 251.852 89.6243 251.895C89.6145 251.949 89.5928 251.996 89.575 252.05C89.543 252.146 89.4943 252.251 89.4943 252.352C89.4943 252.605 89.4517 252.871 89.3689 253.111C89.2727 253.388 89.2149 253.684 89.1717 253.975C89.1523 254.107 89.0749 254.24 89.0749 254.372C89.0749 254.502 89.0427 254.622 89.0427 254.752C89.0427 254.951 88.9781 255.135 88.9781 255.333C88.9781 255.421 88.986 255.507 88.9539 255.59C88.925 255.666 88.9136 255.768 88.9136 255.848C88.9136 256.008 88.8652 256.128 88.8652 256.292" stroke="white" stroke-linecap="round"/>
<path d="M92.1361 260.48C92.2975 260.48 92.5826 260.323 92.7012 260.204C92.8432 260.062 93.0463 260.008 93.2152 259.907C93.5928 259.68 94.0089 259.431 94.4473 259.342C94.8465 259.26 95.2856 259.002 95.6369 258.798C96.0359 258.566 96.4446 258.3 96.8775 258.135C98.2293 257.621 99.6214 257.129 101.016 256.686C101.309 256.593 101.654 256.52 101.963 256.504C102.683 256.466 103.407 256.317 104.117 256.198C104.746 256.092 106.574 255.586 105.999 255.862C105.585 256.061 105.038 256.006 104.591 256.006C104.215 256.006 103.879 256.072 103.52 256.189C102.801 256.424 102.088 256.683 101.385 256.962C101.195 257.038 101.002 257.153 100.799 257.192C100.659 257.218 100.53 257.298 100.38 257.326C99.846 257.426 99.3535 257.594 98.834 257.744C97.3153 258.184 95.9243 258.998 94.4877 259.637C93.7837 259.95 93.2045 260.372 92.6714 260.905C92.5036 261.073 92.2036 261.315 92.1361 261.551C92.098 261.684 91.8989 261.833 91.8132 261.95C91.7359 262.056 91.6029 262.194 91.5625 262.316" stroke="white" stroke-linecap="round"/>
<path d="M100.701 257.192C101.004 257.139 101.309 257.072 101.615 257.041C101.947 257.008 102.273 256.906 102.607 256.888C103.123 256.861 103.629 256.854 104.143 256.771C104.82 256.661 105.494 256.638 106.171 256.561C106.638 256.508 107.109 256.572 107.575 256.512C108.051 256.451 108.535 256.429 109.011 256.391C109.268 256.37 109.55 256.433 109.802 256.38C110.322 256.271 110.877 256.312 111.408 256.312" stroke="white" stroke-linecap="round"/>
<defs>
<filter id="filter0_b_0_1" x="-4" y="-4" width="282" height="281" filterUnits="userSpaceOnUse" color-interpolation-filters="sRGB">
<feFlood flood-opacity="0" result="BackgroundImageFix"/>
<feGaussianBlur in="BackgroundImage" stdDeviation="2"/>
<feComposite in2="SourceAlpha" operator="in" result="effect1_backgroundBlur_0_1"/>
<feBlend mode="normal" in="SourceGraphic" in2="effect1_backgroundBlur_0_1" result="shape"/>
</filter>
</defs>
</svg>
